<svg width="36" height="36" viewBox="0 0 36 36" fill="none" xmlns="http://www.w3.org/2000/svg">
<path d="M0 10C0 4.47715 4.47715 0 10 0H26C31.5228 0 36 4.47715 36 10V26C36 31.5228 31.5228 36 26 36H10C4.47715 36 0 31.5228 0 26V10Z" fill="#DBEAFE"/>
<path d="M24.6668 18.8331C24.6668 22.9997 21.7502 25.0831 18.2835 26.2914C18.102 26.3529 17.9048 26.35 17.7252 26.2831C14.2502 25.0831 11.3335 22.9997 11.3335 18.8331V12.9997C11.3335 12.7787 11.4213 12.5667 11.5776 12.4105C11.7339 12.2542 11.9458 12.1664 12.1668 12.1664C13.8335 12.1664 15.9168 11.1664 17.3668 9.89972C17.5434 9.74889 17.768 9.66602 18.0002 9.66602C18.2324 9.66602 18.457 9.74889 18.6335 9.89972C20.0918 11.1747 22.1668 12.1664 23.8335 12.1664C24.0545 12.1664 24.2665 12.2542 24.4228 12.4105C24.579 12.5667 24.6668 12.7787 24.6668 12.9997V18.8331Z" stroke="#155DFC" stroke-width="1.66667" stroke-linecap="round" stroke-linejoin="round"/>
</svg>
