<svg width="36" height="36" viewBox="0 0 36 36" fill="none" xmlns="http://www.w3.org/2000/svg">
<path d="M0 10C0 4.47715 4.47715 0 10 0H26C31.5228 0 36 4.47715 36 10V26C36 31.5228 31.5228 36 26 36H10C4.47715 36 0 31.5228 0 26V10Z" fill="#F3E8FF"/>
<path d="M21.3332 25.5V23.8333C21.3332 22.9493 20.982 22.1014 20.3569 21.4763C19.7317 20.8512 18.8839 20.5 17.9998 20.5H12.9998C12.1158 20.5 11.2679 20.8512 10.6428 21.4763C10.0177 22.1014 9.6665 22.9493 9.6665 23.8333V25.5" stroke="#9810FA" stroke-width="1.66667" stroke-linecap="round" stroke-linejoin="round"/>
<path d="M15.4998 17.1667C17.3408 17.1667 18.8332 15.6743 18.8332 13.8333C18.8332 11.9924 17.3408 10.5 15.4998 10.5C13.6589 10.5 12.1665 11.9924 12.1665 13.8333C12.1665 15.6743 13.6589 17.1667 15.4998 17.1667Z" stroke="#9810FA" stroke-width="1.66667" stroke-linecap="round" stroke-linejoin="round"/>
<path d="M26.3335 25.4991V23.8324C26.3329 23.0939 26.0871 22.3764 25.6346 21.7927C25.1821 21.209 24.5486 20.7921 23.8335 20.6074" stroke="#9810FA" stroke-width="1.66667" stroke-linecap="round" stroke-linejoin="round"/>
<path d="M21.3335 10.6074C22.0505 10.791 22.686 11.208 23.1399 11.7927C23.5937 12.3774 23.84 13.0964 23.84 13.8366C23.84 14.5767 23.5937 15.2958 23.1399 15.8805C22.686 16.4652 22.0505 16.8822 21.3335 17.0658" stroke="#9810FA" stroke-width="1.66667" stroke-linecap="round" stroke-linejoin="round"/>
</svg>
