<svg width="80" height="80" viewBox="0 0 80 80" fill="none" xmlns="http://www.w3.org/2000/svg">
<path d="M0 40C0 17.9086 17.9086 0 40 0C62.0914 0 80 17.9086 80 40C80 62.0914 62.0914 80 40 80C17.9086 80 0 62.0914 0 40Z" fill="white" fill-opacity="0.2"/>
<path d="M53.3332 41.6671C53.3332 50.0004 47.4998 54.1671 40.5665 56.5838C40.2034 56.7068 39.8091 56.7009 39.4498 56.5671C32.4998 54.1671 26.6665 50.0004 26.6665 41.6671V30.0004C26.6665 29.5584 26.8421 29.1345 27.1547 28.8219C27.4672 28.5094 27.8911 28.3338 28.3332 28.3338C31.6665 28.3338 35.8332 26.3338 38.7332 23.8004C39.0863 23.4988 39.5354 23.333 39.9998 23.333C40.4642 23.333 40.9134 23.4988 41.2665 23.8004C44.1832 26.3504 48.3332 28.3338 51.6665 28.3338C52.1085 28.3338 52.5325 28.5094 52.845 28.8219C53.1576 29.1345 53.3332 29.5584 53.3332 30.0004V41.6671Z" stroke="white" stroke-width="3.33333" stroke-linecap="round" stroke-linejoin="round"/>
</svg>
