<svg width="36" height="36" viewBox="0 0 36 36" fill="none" xmlns="http://www.w3.org/2000/svg">
<path d="M0 10C0 4.47715 4.47715 0 10 0H26C31.5228 0 36 4.47715 36 10V26C36 31.5228 31.5228 36 26 36H10C4.47715 36 0 31.5228 0 26V10Z" fill="#DCFCE7"/>
<path d="M20.8973 18.7422L22.1598 25.8472C22.1739 25.9309 22.1622 26.0168 22.1261 26.0936C22.0901 26.1705 22.0315 26.2344 21.9581 26.277C21.8847 26.3196 21.8 26.3388 21.7155 26.3319C21.6309 26.3251 21.5504 26.2926 21.4848 26.2389L18.5015 23.9997C18.3574 23.8921 18.1825 23.834 18.0027 23.834C17.8229 23.834 17.648 23.8921 17.504 23.9997L14.5156 26.238C14.4501 26.2917 14.3697 26.3241 14.2852 26.331C14.2007 26.3378 14.1162 26.3187 14.0428 26.2762C13.9695 26.2338 13.9109 26.17 13.8747 26.0933C13.8386 26.0166 13.8267 25.9308 13.8406 25.8472L15.1023 18.7422" stroke="#00A63E" stroke-width="1.66667" stroke-linecap="round" stroke-linejoin="round"/>
<path d="M18 19.666C20.7614 19.666 23 17.4274 23 14.666C23 11.9046 20.7614 9.66602 18 9.66602C15.2386 9.66602 13 11.9046 13 14.666C13 17.4274 15.2386 19.666 18 19.666Z" stroke="#00A63E" stroke-width="1.66667" stroke-linecap="round" stroke-linejoin="round"/>
</svg>
