<svg width="20" height="20" viewBox="0 0 20 20" fill="none" xmlns="http://www.w3.org/2000/svg">
<path d="M10.828 1.63807C12.1176 0.00794709 13.9103 0 13.9103 0C13.9103 0 14.177 1.53259 12.8959 3.00897C11.528 4.58541 9.97326 4.32745 9.97326 4.32745C9.97326 4.32745 9.68131 3.08763 10.828 1.63807ZM10.1373 5.40103C10.8007 5.40103 12.0319 4.52641 13.6345 4.52641C16.3932 4.52641 17.4784 6.40908 17.4784 6.40908C17.4784 6.40908 15.3559 7.4499 15.3559 9.97542C15.3559 12.8244 18 13.8063 18 13.8063C18 13.8063 16.1517 18.7959 13.6551 18.7959C12.5084 18.7959 11.6169 18.0548 10.4087 18.0548C9.1775 18.0548 7.95568 18.8235 7.1599 18.8235C4.88013 18.8236 2 14.0904 2 10.2858C2 6.54251 4.43784 4.57885 6.72444 4.57885C8.21094 4.57885 9.36447 5.40103 10.1373 5.40103Z" fill="#1A1C29"/>
</svg>
