<svg width="32" height="32" viewBox="0 0 32 32" fill="none" xmlns="http://www.w3.org/2000/svg">
<rect x="0.5" y="0.5" width="31" height="31" rx="5.5" fill="white" fill-opacity="0.8"/>
<rect x="0.5" y="0.5" width="31" height="31" rx="5.5" stroke="white"/>
<path d="M23.5 11.3947C23.5 10.7988 22.9071 10.2503 21.9122 9.81459C21.0312 9.42876 20.125 10.1647 20.125 11.1265V13.5396M23.5 11.3947V20.9321C23.5 22.3502 20.1421 23.4999 16 23.4999C11.8579 23.4999 8.5 22.3502 8.5 20.9321V11.3947M23.5 11.3947C23.5 12.2912 22.1583 13.0803 20.125 13.5396M8.5 11.3947C8.5 10.7988 9.09291 10.2503 10.0878 9.81459C10.9688 9.42876 11.875 10.1647 11.875 11.1265V13.5396M8.5 11.3947C8.5 12.2912 9.84167 13.0803 11.875 13.5396M11.875 13.5396C13.0584 13.8069 14.4761 13.9625 16 13.9625C17.5239 13.9625 18.9416 13.8069 20.125 13.5396" stroke="#0A68FF" stroke-width="1.5"/>
<path d="M21.625 16.75C21.625 17.3713 21.1213 17.875 20.5 17.875C19.8787 17.875 19.375 17.3713 19.375 16.75C19.375 16.1287 19.8787 15.625 20.5 15.625C21.1213 15.625 21.625 16.1287 21.625 16.75Z" stroke="#0A68FF" stroke-width="1.5"/>
<path d="M22.75 22L20.8783 20.3886C20.2747 19.8689 19.3758 19.8172 18.7114 20.2638L18.5382 20.3802C18.0765 20.6906 17.4484 20.6386 17.0493 20.2569L14.5585 17.8742C14.0614 17.3986 13.2639 17.3732 12.7348 17.8161L11.7177 18.6674L8.875 21.3276" stroke="#0A68FF" stroke-width="1.5" stroke-linecap="round"/>
</svg>
