<svg width="32" height="33" viewBox="0 0 32 33" fill="none" xmlns="http://www.w3.org/2000/svg">
<path d="M30.1767 15.1116H29.1218V14.5841C29.1212 14.1647 28.9543 13.7625 28.6577 13.4659C28.3611 13.1693 27.9589 13.0024 27.5394 13.0018H20.153C19.7335 13.0024 19.3314 13.1693 19.0348 13.4659C18.7381 13.7625 18.5712 14.1647 18.5707 14.5841V15.1116H3.79554V4.55159C3.81313 3.76515 4.12299 3.01344 4.66471 2.44304C5.20642 1.87264 5.94115 1.52444 6.72565 1.46633C7.51014 1.40822 8.28816 1.64437 8.908 2.12872C9.52784 2.61308 9.94508 3.31093 10.0784 4.0862C9.35123 4.21903 8.69341 4.60185 8.21871 5.16842C7.744 5.73499 7.48227 6.44968 7.4788 7.18882V7.71627C7.4788 7.85615 7.53437 7.99031 7.63328 8.08923C7.7322 8.18814 7.86636 8.24371 8.00624 8.24371H13.294C13.4339 8.24371 13.568 8.18814 13.667 8.08923C13.7659 7.99031 13.8214 7.85615 13.8214 7.71627V7.19769C13.8206 6.44633 13.5527 5.71973 13.0655 5.14772C12.5784 4.5757 11.9037 4.19553 11.1621 4.07512C11.0977 2.95837 10.5923 1.91293 9.75717 1.16878C8.922 0.424633 7.82543 0.0427311 6.70868 0.107091C5.59194 0.171451 4.5465 0.676801 3.80235 1.51197C3.0582 2.34714 2.67629 3.44371 2.74065 4.56046V15.1116H1.68576C1.31209 15.1102 0.950027 15.2414 0.663879 15.4817C0.377731 15.722 0.186014 16.056 0.122772 16.4243C0.0595309 16.7926 0.128858 17.1713 0.318443 17.4934C0.508028 17.8154 0.8056 18.0598 1.15832 18.1832V22.5025C1.16152 24.3703 1.87182 26.1677 3.14637 27.5331C4.42093 28.8985 6.1652 29.7307 8.0284 29.8623V30.4164C8.01454 30.6323 8.04512 30.8489 8.11827 31.0526C8.19142 31.2563 8.30558 31.4428 8.45369 31.6006C8.6018 31.7584 8.78071 31.8842 8.97936 31.9701C9.17801 32.056 9.39217 32.1003 9.6086 32.1001C9.82503 32.0999 10.0391 32.0554 10.2377 31.9692C10.4362 31.883 10.6149 31.757 10.7628 31.599C10.9107 31.441 11.0246 31.2543 11.0975 31.0505C11.1703 30.8467 11.2006 30.6301 11.1864 30.4141V29.8867H20.6804V30.4141C20.6804 30.8338 20.8472 31.2363 21.1439 31.533C21.4406 31.8298 21.8431 31.9965 22.2628 31.9965C22.6824 31.9965 23.0849 31.8298 23.3817 31.533C23.6784 31.2363 23.8451 30.8338 23.8451 30.4141V29.8601C25.706 29.7258 27.4472 28.8928 28.7194 27.5281C29.9916 26.1635 30.7006 24.3681 30.7041 22.5025V18.181C31.0579 18.0588 31.3568 17.8149 31.5474 17.4927C31.7379 17.1705 31.8077 16.7911 31.7443 16.4222C31.6809 16.0533 31.4885 15.719 31.2013 15.4789C30.9141 15.2388 30.551 15.1086 30.1767 15.1116ZM12.7665 7.19769H8.55585C8.59057 6.66292 8.82748 6.16141 9.21849 5.79496C9.6095 5.42851 10.1253 5.22459 10.6612 5.22459C11.1971 5.22459 11.7129 5.42851 12.1039 5.79496C12.4949 6.16141 12.7318 6.66292 12.7665 7.19769ZM27.012 15.1116V14.5841C27.012 14.4442 27.0676 14.3101 27.1665 14.2112C27.2654 14.1123 27.3996 14.0567 27.5394 14.0567C27.6793 14.0567 27.8135 14.1123 27.9124 14.2112C28.0113 14.3101 28.0669 14.4442 28.0669 14.5841V15.1116H27.012ZM19.6256 14.5841C19.6256 14.4442 19.6811 14.3101 19.78 14.2112C19.879 14.1123 20.0131 14.0567 20.153 14.0567H26.0546C25.9917 14.2255 25.9587 14.404 25.9571 14.5841V20.3883H21.2079C21.068 20.3883 20.9338 20.4438 20.8349 20.5427C20.736 20.6417 20.6804 20.7758 20.6804 20.9157C20.6804 21.0556 20.736 21.1897 20.8349 21.2887C20.9338 21.3876 21.068 21.4431 21.2079 21.4431H25.9571V22.5025H19.6256V14.5841ZM10.1271 30.4141C10.1271 30.554 10.0715 30.6882 9.97262 30.7871C9.87371 30.886 9.73955 30.9416 9.59966 30.9416C9.45977 30.9416 9.32561 30.886 9.2267 30.7871C9.12778 30.6882 9.07222 30.554 9.07222 30.4141V29.8867H10.1271V30.4141ZM22.7902 30.4141C22.7902 30.4834 22.7766 30.552 22.7501 30.616C22.7236 30.68 22.6847 30.7381 22.6357 30.7871C22.5868 30.8361 22.5286 30.8749 22.4646 30.9014C22.4006 30.9279 22.332 30.9416 22.2628 30.9416C22.1935 30.9416 22.1249 30.9279 22.0609 30.9014C21.9969 30.8749 21.9388 30.8361 21.8898 30.7871C21.8408 30.7381 21.802 30.68 21.7755 30.616C21.749 30.552 21.7353 30.4834 21.7353 30.4141V29.8867H22.7902V30.4141ZM23.3177 28.8318H8.54477C6.86646 28.8301 5.25736 28.1627 4.07041 26.9762C2.88345 25.7896 2.21556 24.1808 2.21321 22.5025V18.2918H15.9312C16.0711 18.2918 16.2053 18.2362 16.3042 18.1373C16.4031 18.0384 16.4587 17.9042 16.4587 17.7643C16.4587 17.6244 16.4031 17.4903 16.3042 17.3914C16.2053 17.2924 16.0711 17.2369 15.9312 17.2369H1.68576C1.61525 17.2371 1.54544 17.2228 1.48064 17.195C1.41585 17.1672 1.35744 17.1264 1.30902 17.0751C1.25905 17.0258 1.21987 16.9666 1.19393 16.9014C1.16799 16.8362 1.15586 16.7663 1.15832 16.6961C1.15832 16.5562 1.21389 16.4221 1.3128 16.3232C1.41172 16.2243 1.54588 16.1687 1.68576 16.1687H18.5707V22.5025C18.5713 22.6868 18.6204 22.8678 18.7129 23.0273C18.8055 23.1867 18.9383 23.3191 19.0981 23.4111V24.6122C19.0981 24.6815 19.1118 24.7501 19.1383 24.8141C19.1648 24.8781 19.2036 24.9362 19.2526 24.9852C19.3016 25.0342 19.3597 25.073 19.4237 25.0995C19.4877 25.1261 19.5563 25.1397 19.6256 25.1397C19.6948 25.1397 19.7634 25.1261 19.8274 25.0995C19.8914 25.073 19.9495 25.0342 19.9985 24.9852C20.0475 24.9362 20.0863 24.8781 20.1129 24.8141C20.1394 24.7501 20.153 24.6815 20.153 24.6122V23.5574H21.2079V24.6122C21.2079 24.6815 21.2215 24.7501 21.248 24.8141C21.2745 24.8781 21.3134 24.9362 21.3624 24.9852C21.4114 25.0342 21.4695 25.073 21.5335 25.0995C21.5975 25.1261 21.6661 25.1397 21.7353 25.1397C21.8046 25.1397 21.8732 25.1261 21.9372 25.0995C22.0012 25.073 22.0593 25.0342 22.1083 24.9852C22.1573 24.9362 22.1961 24.8781 22.2226 24.8141C22.2491 24.7501 22.2628 24.6815 22.2628 24.6122V23.5574H23.3177V24.6122C23.3177 24.7521 23.3732 24.8863 23.4722 24.9852C23.5711 25.0841 23.7052 25.1397 23.8451 25.1397C23.985 25.1397 24.1192 25.0841 24.2181 24.9852C24.317 24.8863 24.3726 24.7521 24.3726 24.6122V23.5574H25.4275V24.6122C25.4275 24.6815 25.4411 24.7501 25.4676 24.8141C25.4941 24.8781 25.533 24.9362 25.5819 24.9852C25.6309 25.0342 25.6891 25.073 25.7531 25.0995C25.817 25.1261 25.8856 25.1397 25.9549 25.1397C26.0242 25.1397 26.0928 25.1261 26.1567 25.0995C26.2207 25.073 26.2789 25.0342 26.3279 24.9852C26.3768 24.9362 26.4157 24.8781 26.4422 24.8141C26.4687 24.7501 26.4823 24.6815 26.4823 24.6122V23.4111C26.6423 23.3193 26.7752 23.187 26.8678 23.0275C26.9604 22.868 27.0094 22.6869 27.0098 22.5025V18.2918H29.647V22.5025C29.6453 24.1812 28.9776 25.7906 27.7906 26.9776C26.6036 28.1646 24.9941 28.8323 23.3155 28.834L23.3177 28.8318ZM30.1878 17.2236H27.012V16.1687H30.1767C30.2472 16.1685 30.317 16.1828 30.3818 16.2106C30.4466 16.2384 30.505 16.2792 30.5534 16.3305C30.6017 16.3782 30.64 16.4352 30.6659 16.498C30.6917 16.5608 30.7048 16.6282 30.7041 16.6961C30.7041 16.836 30.6486 16.9702 30.5496 17.0691C30.4507 17.168 30.3166 17.2236 30.1767 17.2236H30.1878Z" fill="#3B85FF" stroke="#3B85FF" stroke-width="0.2"/>
<path d="M11.184 9.82629C11.184 9.6864 11.1285 9.55225 11.0296 9.45333C10.9307 9.35442 10.7965 9.29883 10.6566 9.29883C10.5167 9.29883 10.3826 9.35442 10.2837 9.45333C10.1847 9.55225 10.1292 9.6864 10.1292 9.82629V10.3537C10.1292 10.4936 10.1847 10.6278 10.2837 10.7267C10.3826 10.8256 10.5167 10.8812 10.6566 10.8812C10.7965 10.8812 10.9307 10.8256 11.0296 10.7267C11.1285 10.6278 11.184 10.4936 11.184 10.3537V9.82629Z" fill="#3B85FF" stroke="#3B85FF" stroke-width="0.2"/>
<path d="M10.657 11.9478C10.5171 11.9478 10.3829 12.0033 10.284 12.1023C10.1851 12.2012 10.1295 12.3353 10.1295 12.4752V13.0026C10.1295 13.1425 10.1851 13.2767 10.284 13.3756C10.3829 13.4745 10.5171 13.5301 10.657 13.5301C10.7969 13.5301 10.931 13.4745 11.0299 13.3756C11.1288 13.2767 11.1844 13.1425 11.1844 13.0026V12.4752C11.1844 12.3353 11.1288 12.2012 11.0299 12.1023C10.931 12.0033 10.7969 11.9478 10.657 11.9478Z" fill="#3B85FF" stroke="#3B85FF" stroke-width="0.2"/>
<path d="M8.79769 8.86199L8.42757 9.23877C8.37753 9.2879 8.33779 9.34652 8.31067 9.4112C8.28355 9.47588 8.26961 9.54531 8.26965 9.61544C8.2697 9.68558 8.28375 9.75501 8.31094 9.81966C8.33814 9.88431 8.37794 9.94288 8.42805 9.99195C8.47815 10.041 8.53754 10.0796 8.60274 10.1055C8.66794 10.1313 8.73764 10.1439 8.80777 10.1425C8.87789 10.141 8.947 10.1257 9.0111 10.0972C9.0752 10.0688 9.13301 10.0278 9.18109 9.97673L9.55117 9.59999C9.64585 9.49946 9.69734 9.36581 9.69455 9.22775C9.69176 9.08968 9.63492 8.95818 9.53626 8.86155C9.4376 8.76492 9.30499 8.71085 9.16689 8.71094C9.02879 8.71102 8.89623 8.76525 8.79769 8.86199Z" fill="#3B85FF" stroke="#3B85FF" stroke-width="0.2"/>
<path d="M6.9562 10.7482L6.5861 11.125C6.53605 11.1741 6.4963 11.2327 6.46918 11.2974C6.44206 11.3621 6.42812 11.4315 6.42816 11.5017C6.4282 11.5718 6.44224 11.6412 6.46943 11.7059C6.49663 11.7705 6.53645 11.8291 6.58656 11.8782C6.63666 11.9273 6.69605 11.9659 6.76125 11.9917C6.82645 12.0175 6.89614 12.0301 6.96626 12.0287C7.03638 12.0273 7.10552 12.0119 7.16963 11.9834C7.23373 11.955 7.2915 11.914 7.33958 11.863L7.70968 11.4862C7.80436 11.3857 7.85583 11.252 7.85304 11.114C7.85026 10.9759 7.79343 10.8444 7.69477 10.7478C7.59611 10.6512 7.46348 10.5971 7.32538 10.5972C7.18728 10.5973 7.05474 10.6515 6.9562 10.7482Z" fill="#3B85FF" stroke="#3B85FF" stroke-width="0.2"/>
<path d="M11.7626 8.85556C11.7135 8.90455 11.6745 8.96276 11.6479 9.02683C11.6214 9.09091 11.6077 9.15961 11.6077 9.22899C11.6077 9.29836 11.6214 9.36706 11.6479 9.43114C11.6745 9.49522 11.7135 9.55342 11.7626 9.60241L12.1327 9.97916C12.2313 10.0759 12.3638 10.1302 12.5019 10.1302C12.64 10.1303 12.7726 10.0762 12.8713 9.9796C12.97 9.88297 13.0268 9.75151 13.0296 9.61344C13.0324 9.47537 12.9809 9.34173 12.8862 9.24119L12.5161 8.86445C12.4671 8.81533 12.4089 8.77634 12.3449 8.74975C12.2808 8.72316 12.2121 8.70947 12.1427 8.70947C12.0733 8.70947 12.0046 8.72316 11.9405 8.74975C11.8765 8.77634 11.8183 8.81533 11.7693 8.86445L11.7626 8.85556Z" fill="#3B85FF" stroke="#3B85FF" stroke-width="0.2"/>
<path d="M13.6019 11.4862L13.9721 11.863C14.0201 11.914 14.0779 11.955 14.142 11.9834C14.2061 12.0119 14.2752 12.0273 14.3454 12.0287C14.4155 12.0301 14.4852 12.0175 14.5504 11.9917C14.6156 11.9659 14.675 11.9273 14.7251 11.8782C14.7752 11.8291 14.815 11.7705 14.8422 11.7059C14.8694 11.6412 14.8834 11.5718 14.8835 11.5017C14.8835 11.4315 14.8696 11.3621 14.8425 11.2974C14.8153 11.2327 14.7756 11.1741 14.7255 11.125L14.3554 10.7483C14.2569 10.6515 14.1243 10.5973 13.9862 10.5972C13.8481 10.5971 13.7155 10.6512 13.6169 10.7478C13.5182 10.8444 13.4614 10.9759 13.4586 11.114C13.4558 11.252 13.5073 11.3857 13.6019 11.4862Z" fill="#3B85FF" stroke="#3B85FF" stroke-width="0.2"/>
</svg>
