<svg width="33" height="25" viewBox="0 0 33 25" fill="none" xmlns="http://www.w3.org/2000/svg">
<path d="M30.717 13.7545V2.7157C30.7161 2.00928 30.4351 1.33206 29.9358 0.832376C29.4365 0.332693 28.7594 0.051286 28.053 0.0498047H4.05069C3.34363 0.0502984 2.66565 0.331261 2.1655 0.831052C1.66536 1.33084 1.38392 2.00864 1.38293 2.7157V13.7526C0.978987 13.985 0.643213 14.3194 0.409266 14.7224C0.175319 15.1254 0.05142 15.5829 0.0499878 16.0489L0.0499878 18.7185C0.0509755 19.4252 0.332162 20.1027 0.8319 20.6025C1.33164 21.1022 2.00914 21.3834 2.71588 21.3844V23.3857C2.71588 23.5624 2.78609 23.7319 2.91108 23.8569C3.03607 23.9819 3.20559 24.0521 3.38235 24.0521H4.71716C4.84136 24.0516 4.96292 24.0163 5.06815 23.9503C5.17337 23.8844 5.25807 23.7903 5.31269 23.6788L6.46082 21.3807H25.6373L26.7854 23.6788C26.84 23.7903 26.9247 23.8844 27.03 23.9503C27.1352 24.0163 27.2568 24.0516 27.3809 24.0521H28.7139C28.8907 24.0521 29.0602 23.9819 29.1852 23.8569C29.3101 23.7319 29.3804 23.5624 29.3804 23.3857V21.3825C30.0874 21.3825 30.7656 21.102 31.2661 20.6026C31.7666 20.1031 32.0485 19.4256 32.05 18.7185V16.0489C32.0482 15.5832 31.9242 15.1261 31.6902 14.7235C31.4563 14.3208 31.1207 13.9867 30.717 13.7545ZM2.71401 2.71756C2.7145 2.36419 2.8551 2.02544 3.10497 1.77557C3.35483 1.5257 3.69359 1.3851 4.04695 1.38461H28.053C28.4064 1.3851 28.7451 1.5257 28.995 1.77557C29.2449 2.02544 29.3855 2.36419 29.386 2.71756V13.3848H27.6796C27.7599 13.2878 27.8495 13.1982 27.9242 13.1011C28.0029 12.9893 28.0452 12.856 28.0452 12.7193C28.0452 12.5826 28.0029 12.4493 27.9242 12.3375C27.6236 11.861 27.2116 11.4647 26.7238 11.1827C26.236 10.9007 25.6869 10.7416 25.1239 10.719H20.3036C19.7407 10.7416 19.1916 10.9007 18.7038 11.1827C18.216 11.4647 17.804 11.861 17.5033 12.3375C17.4246 12.4493 17.3823 12.5826 17.3823 12.7193C17.3823 12.856 17.4246 12.9893 17.5033 13.1011C17.578 13.2075 17.6676 13.2878 17.7479 13.3848H14.3502C14.4305 13.2878 14.5201 13.1982 14.5948 13.1011C14.6735 12.9893 14.7158 12.856 14.7158 12.7193C14.7158 12.5826 14.6735 12.4493 14.5948 12.3375C14.2941 11.861 13.8822 11.4647 13.3943 11.1827C12.9065 10.9007 12.3575 10.7416 11.7945 10.719H6.97047C6.40748 10.7416 5.85842 10.9007 5.3706 11.1827C4.88278 11.4647 4.4708 11.861 4.17017 12.3375C4.09142 12.4493 4.04916 12.5826 4.04916 12.7193C4.04916 12.856 4.09142 12.9893 4.17017 13.1011C4.24484 13.2075 4.33445 13.2878 4.41473 13.3848H2.71588L2.71401 2.71756ZM26.5222 12.7165C26.3473 12.9171 26.1332 13.0798 25.893 13.1944C25.6528 13.309 25.3917 13.3732 25.1258 13.383H20.3036C20.0377 13.3732 19.7766 13.309 19.5364 13.1944C19.2962 13.0798 19.0821 12.9171 18.9072 12.7165C19.0821 12.5159 19.2962 12.3532 19.5364 12.2386C19.7766 12.124 20.0377 12.0598 20.3036 12.05H25.1295C25.3951 12.0601 25.6559 12.1244 25.8957 12.239C26.1356 12.3536 26.3494 12.5161 26.5241 12.7165H26.5222ZM13.189 12.7165C13.0142 12.9171 12.8 13.0798 12.5598 13.1944C12.3197 13.309 12.0585 13.3732 11.7926 13.383H6.97047C6.70452 13.3732 6.44339 13.309 6.20322 13.1944C5.96304 13.0798 5.74891 12.9171 5.57405 12.7165C5.74891 12.5159 5.96304 12.3532 6.20322 12.2386C6.44339 12.124 6.70452 12.0598 6.97047 12.05H11.7963C12.062 12.0601 12.3227 12.1244 12.5626 12.239C12.8024 12.3536 13.0162 12.5161 13.1909 12.7165H13.189ZM4.30272 22.7155H4.05069V21.3825H4.97292L4.30272 22.7155ZM28.0474 22.7155H27.7917L27.1252 21.3825H28.053L28.0474 22.7155ZM30.717 18.7185C30.7165 19.0719 30.576 19.4106 30.3261 19.6605C30.0762 19.9104 29.7375 20.0509 29.3841 20.0514H2.71588C2.36251 20.0509 2.02376 19.9104 1.77389 19.6605C1.52402 19.4106 1.38343 19.0719 1.38293 18.7185V16.0489C1.38343 15.6955 1.52402 15.3567 1.77389 15.1069C2.02376 14.857 2.36251 14.7164 2.71588 14.7159H29.3822C29.7356 14.7164 30.0744 14.857 30.3242 15.1069C30.5741 15.3567 30.7147 15.6955 30.7152 16.0489L30.717 18.7185Z" fill="#3B85FF" stroke="#3B85FF" stroke-width="0.1"/>
</svg>
