<svg width="208" height="208" viewBox="0 0 208 208" fill="none" xmlns="http://www.w3.org/2000/svg">
<circle cx="104" cy="104" r="104" fill="#F2F7FF"/>
<path d="M46.7972 61.8692C44.1514 61.8692 42 59.7178 42 57.0721C42 54.4263 44.1514 52.2749 46.7972 52.2749H153.555C156.201 52.2749 158.353 54.4263 158.353 57.0721C158.353 59.7178 156.201 61.8692 153.555 61.8692H46.7972Z" fill="#F5F5F5"/>
<path d="M48.0796 60.8302C45.4339 60.8302 43.2825 58.6788 43.2825 56.033C43.2825 53.3872 45.4339 51.2358 48.0796 51.2358H154.838C157.484 51.2358 159.635 53.3872 159.635 56.033C159.635 58.6788 157.484 60.8302 154.838 60.8302H48.0796Z" fill="#49518E"/>
<path d="M48.0795 57.7401C47.1371 57.7401 46.3723 56.9753 46.3723 56.0329C46.3723 55.0905 47.1371 54.3257 48.0795 54.3257H154.838C155.78 54.3257 156.545 55.0905 156.545 56.0329C156.545 56.9753 155.78 57.7401 154.838 57.7401H48.0795Z" fill="#CBCBCB"/>
<path d="M141.373 167.075H67.191C63.4482 167.075 60.4124 164.039 60.4124 160.296V60.8301H150.968V157.484C150.968 162.78 146.673 167.075 141.373 167.075Z" fill="#3B85FF"/>
<path d="M56.3568 40C52.5716 40 49.501 43.0707 49.501 46.8559V57.7209H63.0196V46.8559V40H56.3568Z" fill="#0A68FF"/>
<path d="M60.4122 46.8559V60.8302H63.0194V46.8559V40H60.4122H56.3567C55.8777 40 55.4065 40.0502 54.9546 40.1429C58.0716 40.7918 60.4122 43.5496 60.4122 46.8559Z" fill="#3B85FF"/>
<g filter="url(#filter0_dd_21673_12383)">
<path d="M148.152 41H64.8557H58C61.7851 41 64.8557 43.8084 64.8557 47.2704V149.74C64.8557 153.199 67.9186 156 71.6999 156H155V47.2598C155 43.8013 151.933 41 148.152 41Z" fill="#D2D6DB"/>
</g>
<path d="M146.317 40H63.0194H56.1636C59.9488 40 63.0194 43.0707 63.0194 46.8559V158.894C63.0194 162.675 66.0824 165.738 69.8637 165.738H153.165V46.8443C153.165 43.0629 150.098 40 146.317 40Z" fill="#FCFAFF"/>
<path opacity="0.3" d="M153.165 154.889L152.412 154.136L150.801 155.746L149.191 154.136L147.58 155.746L145.97 154.136L144.359 155.746L142.748 154.136L141.138 155.746L139.527 154.136L137.916 155.746L136.306 154.136L134.695 155.746L133.084 154.136L131.474 155.746L129.863 154.136L128.252 155.746L126.642 154.136L125.031 155.746L123.421 154.136L121.81 155.746L120.199 154.136L118.589 155.746L116.978 154.136L115.367 155.746L113.757 154.136L112.146 155.746L110.559 154.136L108.948 155.746L107.337 154.136L105.727 155.746L104.116 154.136L102.505 155.746L100.902 154.136L99.2918 155.746L97.6811 154.136L96.0705 155.746L94.4598 154.136L92.8492 155.746L91.2386 154.136L89.6279 155.746L88.0173 154.136L86.4066 155.746L84.796 154.136L83.1853 155.746L81.5747 154.136L79.9641 155.746L78.3534 154.136L76.7428 155.746L75.1321 154.136L73.5215 155.746L71.9108 154.136V161.2C71.9108 162.942 71.2542 164.53 70.1843 165.739H153.15V154.889H153.165Z" fill="#DBDBDB"/>
<path d="M165.224 150.883L163.613 149.272L162.003 150.883L160.392 149.272L158.781 150.883L157.171 149.272L155.56 150.883L153.949 149.272L152.339 150.883L150.728 149.272L149.118 150.883L147.507 149.272L145.896 150.883L144.286 149.272L142.675 150.883L141.064 149.272L139.454 150.883L137.843 149.272L136.232 150.883L134.622 149.272L133.011 150.883L131.4 149.272L129.79 150.883L128.179 149.272L126.569 150.883L124.958 149.272L123.347 150.883L121.737 149.272L120.126 150.883L118.515 149.272L116.905 150.883L115.294 149.272L113.683 150.883L112.073 149.272L110.462 150.883L108.851 149.272L107.241 150.883L105.63 149.272L104.02 150.883L102.409 149.272L100.798 150.883L99.1876 149.272L97.5769 150.883L95.9663 149.272L94.3556 150.883L92.745 149.272L91.1344 150.883L89.5237 149.272L87.9131 150.883L86.3024 149.272L84.6918 150.883L83.0811 149.272L81.4705 150.883L79.8599 149.272L78.2492 150.883L76.6386 149.272V158.882C76.6386 162.667 73.5679 165.738 69.7827 165.738H76.6386H159.94C163.721 165.738 166.784 162.675 166.784 158.894V149.276L165.224 150.883Z" fill="#0A68FF"/>
<path d="M81.5619 67.8433V68.104H80.5V67.8433H81.5619Z" fill="#1F2A37"/>
<path d="M83.0971 67.8433V68.104H82.0351V67.8433H83.0971Z" fill="#1F2A37"/>
<path d="M84.6322 67.8433V68.104H83.5702V67.8433H84.6322Z" fill="#1F2A37"/>
<path d="M86.1673 67.8433V68.104H85.1054V67.8433H86.1673Z" fill="#1F2A37"/>
<path d="M87.7024 67.8433V68.104H86.6405V67.8433H87.7024Z" fill="#1F2A37"/>
<path d="M89.2375 67.8433V68.104H88.1756V67.8433H89.2375Z" fill="#1F2A37"/>
<path d="M90.7727 67.8433V68.104H89.7107V67.8433H90.7727Z" fill="#1F2A37"/>
<path d="M92.3078 67.8433V68.104H91.2459V67.8433H92.3078Z" fill="#1F2A37"/>
<path d="M93.8429 67.8433V68.104H92.781V67.8433H93.8429Z" fill="#1F2A37"/>
<path d="M95.378 67.8433V68.104H94.3161V67.8433H95.378Z" fill="#1F2A37"/>
<path d="M96.9132 67.8433V68.104H95.8512V67.8433H96.9132Z" fill="#1F2A37"/>
<path d="M98.4483 67.8433V68.104H97.3864V67.8433H98.4483Z" fill="#1F2A37"/>
<path d="M99.9834 67.8433V68.104H98.9215V67.8433H99.9834Z" fill="#1F2A37"/>
<path d="M101.519 67.8433V68.104H100.457V67.8433H101.519Z" fill="#1F2A37"/>
<path d="M103.054 67.8433V68.104H101.992V67.8433H103.054Z" fill="#1F2A37"/>
<path d="M104.589 67.8433V68.104H103.527V67.8433H104.589Z" fill="#1F2A37"/>
<path d="M106.124 67.8433V68.104H105.062V67.8433H106.124Z" fill="#1F2A37"/>
<path d="M107.659 67.8433V68.104H106.597V67.8433H107.659Z" fill="#1F2A37"/>
<path d="M109.194 67.8433V68.104H108.132V67.8433H109.194Z" fill="#1F2A37"/>
<path d="M110.729 67.8433V68.104H109.667V67.8433H110.729Z" fill="#1F2A37"/>
<path d="M112.264 67.8433V68.104H111.202V67.8433H112.264Z" fill="#1F2A37"/>
<path d="M113.8 67.8433V68.104H112.738V67.8433H113.8Z" fill="#1F2A37"/>
<path d="M115.335 67.8433V68.104H114.273V67.8433H115.335Z" fill="#1F2A37"/>
<path d="M116.87 67.8433V68.104H115.808V67.8433H116.87Z" fill="#1F2A37"/>
<path d="M118.405 67.8433V68.104H117.343V67.8433H118.405Z" fill="#1F2A37"/>
<path d="M119.94 67.8433V68.104H118.878V67.8433H119.94Z" fill="#1F2A37"/>
<path d="M121.475 67.8433V68.104H120.413V67.8433H121.475Z" fill="#1F2A37"/>
<path d="M123.01 67.8433V68.104H121.948V67.8433H123.01Z" fill="#1F2A37"/>
<path d="M124.545 67.8433V68.104H123.483V67.8433H124.545Z" fill="#1F2A37"/>
<path d="M126.08 67.8433V68.104H125.019V67.8433H126.08Z" fill="#1F2A37"/>
<path d="M127.616 67.8433V68.104H126.554V67.8433H127.616Z" fill="#1F2A37"/>
<path d="M129.151 67.8433V68.104H128.089V67.8433H129.151Z" fill="#1F2A37"/>
<path d="M130.686 67.8433V68.104H129.624V67.8433H130.686Z" fill="#1F2A37"/>
<path d="M132.221 67.8433V68.104H131.159V67.8433H132.221Z" fill="#1F2A37"/>
<path d="M133.756 67.8433V68.104H132.694V67.8433H133.756Z" fill="#1F2A37"/>
<path d="M135.291 67.8433V68.104H134.229V67.8433H135.291Z" fill="#1F2A37"/>
<path d="M136.826 67.8433V68.104H135.764V67.8433H136.826Z" fill="#1F2A37"/>
<path d="M138.361 67.8433V68.104H137.3V67.8433H138.361Z" fill="#1F2A37"/>
<path d="M81.5619 52.7847V53.0454H80.5V52.7847H81.5619Z" fill="#1F2A37"/>
<path d="M83.0971 52.7847V53.0454H82.0351V52.7847H83.0971Z" fill="#1F2A37"/>
<path d="M84.6322 52.7847V53.0454H83.5702V52.7847H84.6322Z" fill="#1F2A37"/>
<path d="M86.1673 52.7847V53.0454H85.1054V52.7847H86.1673Z" fill="#1F2A37"/>
<path d="M87.7024 52.7847V53.0454H86.6405V52.7847H87.7024Z" fill="#1F2A37"/>
<path d="M89.2375 52.7847V53.0454H88.1756V52.7847H89.2375Z" fill="#1F2A37"/>
<path d="M90.7727 52.7847V53.0454H89.7107V52.7847H90.7727Z" fill="#1F2A37"/>
<path d="M92.3078 52.7847V53.0454H91.2459V52.7847H92.3078Z" fill="#1F2A37"/>
<path d="M93.8429 52.7847V53.0454H92.781V52.7847H93.8429Z" fill="#1F2A37"/>
<path d="M95.378 52.7847V53.0454H94.3161V52.7847H95.378Z" fill="#1F2A37"/>
<path d="M96.9132 52.7847V53.0454H95.8512V52.7847H96.9132Z" fill="#1F2A37"/>
<path d="M98.4483 52.7847V53.0454H97.3864V52.7847H98.4483Z" fill="#1F2A37"/>
<path d="M99.9834 52.7847V53.0454H98.9215V52.7847H99.9834Z" fill="#1F2A37"/>
<path d="M101.519 52.7847V53.0454H100.457V52.7847H101.519Z" fill="#1F2A37"/>
<path d="M103.054 52.7847V53.0454H101.992V52.7847H103.054Z" fill="#1F2A37"/>
<path d="M104.589 52.7847V53.0454H103.527V52.7847H104.589Z" fill="#1F2A37"/>
<path d="M106.124 52.7847V53.0454H105.062V52.7847H106.124Z" fill="#1F2A37"/>
<path d="M107.659 52.7847V53.0454H106.597V52.7847H107.659Z" fill="#1F2A37"/>
<path d="M109.194 52.7847V53.0454H108.132V52.7847H109.194Z" fill="#1F2A37"/>
<path d="M110.729 52.7847V53.0454H109.667V52.7847H110.729Z" fill="#1F2A37"/>
<path d="M112.264 52.7847V53.0454H111.202V52.7847H112.264Z" fill="#1F2A37"/>
<path d="M113.8 52.7847V53.0454H112.738V52.7847H113.8Z" fill="#1F2A37"/>
<path d="M115.335 52.7847V53.0454H114.273V52.7847H115.335Z" fill="#1F2A37"/>
<path d="M116.87 52.7847V53.0454H115.808V52.7847H116.87Z" fill="#1F2A37"/>
<path d="M118.405 52.7847V53.0454H117.343V52.7847H118.405Z" fill="#1F2A37"/>
<path d="M119.94 52.7847V53.0454H118.878V52.7847H119.94Z" fill="#1F2A37"/>
<path d="M121.475 52.7847V53.0454H120.413V52.7847H121.475Z" fill="#1F2A37"/>
<path d="M123.01 52.7847V53.0454H121.948V52.7847H123.01Z" fill="#1F2A37"/>
<path d="M124.545 52.7847V53.0454H123.483V52.7847H124.545Z" fill="#1F2A37"/>
<path d="M126.08 52.7847V53.0454H125.019V52.7847H126.08Z" fill="#1F2A37"/>
<path d="M127.616 52.7847V53.0454H126.554V52.7847H127.616Z" fill="#1F2A37"/>
<path d="M129.151 52.7847V53.0454H128.089V52.7847H129.151Z" fill="#1F2A37"/>
<path d="M130.686 52.7847V53.0454H129.624V52.7847H130.686Z" fill="#1F2A37"/>
<path d="M132.221 52.7847V53.0454H131.159V52.7847H132.221Z" fill="#1F2A37"/>
<path d="M133.756 52.7847V53.0454H132.694V52.7847H133.756Z" fill="#1F2A37"/>
<path d="M135.291 52.7847V53.0454H134.229V52.7847H135.291Z" fill="#1F2A37"/>
<path d="M136.826 52.7847V53.0454H135.764V52.7847H136.826Z" fill="#1F2A37"/>
<path d="M138.361 52.7847V53.0454H137.3V52.7847H138.361Z" fill="#1F2A37"/>
<path d="M81.5619 132.99V133.251H80.5V132.99H81.5619Z" fill="#1F2A37"/>
<path d="M83.0971 132.99V133.251H82.0351V132.99H83.0971Z" fill="#1F2A37"/>
<path d="M84.6322 132.99V133.251H83.5702V132.99H84.6322Z" fill="#1F2A37"/>
<path d="M86.1673 132.99V133.251H85.1054V132.99H86.1673Z" fill="#1F2A37"/>
<path d="M87.7024 132.99V133.251H86.6405V132.99H87.7024Z" fill="#1F2A37"/>
<path d="M89.2375 132.99V133.251H88.1756V132.99H89.2375Z" fill="#1F2A37"/>
<path d="M90.7727 132.99V133.251H89.7107V132.99H90.7727Z" fill="#1F2A37"/>
<path d="M92.3078 132.99V133.251H91.2459V132.99H92.3078Z" fill="#1F2A37"/>
<path d="M93.8429 132.99V133.251H92.781V132.99H93.8429Z" fill="#1F2A37"/>
<path d="M95.378 132.99V133.251H94.3161V132.99H95.378Z" fill="#1F2A37"/>
<path d="M96.9132 132.99V133.251H95.8512V132.99H96.9132Z" fill="#1F2A37"/>
<path d="M98.4483 132.99V133.251H97.3864V132.99H98.4483Z" fill="#1F2A37"/>
<path d="M99.9834 132.99V133.251H98.9215V132.99H99.9834Z" fill="#1F2A37"/>
<path d="M101.519 132.99V133.251H100.457V132.99H101.519Z" fill="#1F2A37"/>
<path d="M103.054 132.99V133.251H101.992V132.99H103.054Z" fill="#1F2A37"/>
<path d="M104.589 132.99V133.251H103.527V132.99H104.589Z" fill="#1F2A37"/>
<path d="M106.124 132.99V133.251H105.062V132.99H106.124Z" fill="#1F2A37"/>
<path d="M107.659 132.99V133.251H106.597V132.99H107.659Z" fill="#1F2A37"/>
<path d="M109.194 132.99V133.251H108.132V132.99H109.194Z" fill="#1F2A37"/>
<path d="M110.729 132.99V133.251H109.667V132.99H110.729Z" fill="#1F2A37"/>
<path d="M112.264 132.99V133.251H111.202V132.99H112.264Z" fill="#1F2A37"/>
<path d="M113.8 132.99V133.251H112.738V132.99H113.8Z" fill="#1F2A37"/>
<path d="M115.335 132.99V133.251H114.273V132.99H115.335Z" fill="#1F2A37"/>
<path d="M116.87 132.99V133.251H115.808V132.99H116.87Z" fill="#1F2A37"/>
<path d="M118.405 132.99V133.251H117.343V132.99H118.405Z" fill="#1F2A37"/>
<path d="M119.94 132.99V133.251H118.878V132.99H119.94Z" fill="#1F2A37"/>
<path d="M121.475 132.99V133.251H120.413V132.99H121.475Z" fill="#1F2A37"/>
<path d="M123.01 132.99V133.251H121.948V132.99H123.01Z" fill="#1F2A37"/>
<path d="M124.545 132.99V133.251H123.483V132.99H124.545Z" fill="#1F2A37"/>
<path d="M126.08 132.99V133.251H125.019V132.99H126.08Z" fill="#1F2A37"/>
<path d="M127.616 132.99V133.251H126.554V132.99H127.616Z" fill="#1F2A37"/>
<path d="M129.151 132.99V133.251H128.089V132.99H129.151Z" fill="#1F2A37"/>
<path d="M130.686 132.99V133.251H129.624V132.99H130.686Z" fill="#1F2A37"/>
<path d="M132.221 132.99V133.251H131.159V132.99H132.221Z" fill="#1F2A37"/>
<path d="M133.756 132.99V133.251H132.694V132.99H133.756Z" fill="#1F2A37"/>
<path d="M135.291 132.99V133.251H134.229V132.99H135.291Z" fill="#1F2A37"/>
<path d="M136.826 132.99V133.251H135.764V132.99H136.826Z" fill="#1F2A37"/>
<path d="M138.361 132.99V133.251H137.3V132.99H138.361Z" fill="#1F2A37"/>
<path d="M81.5619 117.604V117.865H80.5V117.604H81.5619Z" fill="#1F2A37"/>
<path d="M83.0971 117.604V117.865H82.0351V117.604H83.0971Z" fill="#1F2A37"/>
<path d="M84.6322 117.604V117.865H83.5702V117.604H84.6322Z" fill="#1F2A37"/>
<path d="M86.1673 117.604V117.865H85.1054V117.604H86.1673Z" fill="#1F2A37"/>
<path d="M87.7024 117.604V117.865H86.6405V117.604H87.7024Z" fill="#1F2A37"/>
<path d="M89.2375 117.604V117.865H88.1756V117.604H89.2375Z" fill="#1F2A37"/>
<path d="M90.7727 117.604V117.865H89.7107V117.604H90.7727Z" fill="#1F2A37"/>
<path d="M92.3078 117.604V117.865H91.2459V117.604H92.3078Z" fill="#1F2A37"/>
<path d="M93.8429 117.604V117.865H92.781V117.604H93.8429Z" fill="#1F2A37"/>
<path d="M95.378 117.604V117.865H94.3161V117.604H95.378Z" fill="#1F2A37"/>
<path d="M96.9132 117.604V117.865H95.8512V117.604H96.9132Z" fill="#1F2A37"/>
<path d="M98.4483 117.604V117.865H97.3864V117.604H98.4483Z" fill="#1F2A37"/>
<path d="M99.9834 117.604V117.865H98.9215V117.604H99.9834Z" fill="#1F2A37"/>
<path d="M101.519 117.604V117.865H100.457V117.604H101.519Z" fill="#1F2A37"/>
<path d="M103.054 117.604V117.865H101.992V117.604H103.054Z" fill="#1F2A37"/>
<path d="M104.589 117.604V117.865H103.527V117.604H104.589Z" fill="#1F2A37"/>
<path d="M106.124 117.604V117.865H105.062V117.604H106.124Z" fill="#1F2A37"/>
<path d="M107.659 117.604V117.865H106.597V117.604H107.659Z" fill="#1F2A37"/>
<path d="M109.194 117.604V117.865H108.132V117.604H109.194Z" fill="#1F2A37"/>
<path d="M110.729 117.604V117.865H109.667V117.604H110.729Z" fill="#1F2A37"/>
<path d="M112.264 117.604V117.865H111.202V117.604H112.264Z" fill="#1F2A37"/>
<path d="M113.8 117.604V117.865H112.738V117.604H113.8Z" fill="#1F2A37"/>
<path d="M115.335 117.604V117.865H114.273V117.604H115.335Z" fill="#1F2A37"/>
<path d="M116.87 117.604V117.865H115.808V117.604H116.87Z" fill="#1F2A37"/>
<path d="M118.405 117.604V117.865H117.343V117.604H118.405Z" fill="#1F2A37"/>
<path d="M119.94 117.604V117.865H118.878V117.604H119.94Z" fill="#1F2A37"/>
<path d="M121.475 117.604V117.865H120.413V117.604H121.475Z" fill="#1F2A37"/>
<path d="M123.01 117.604V117.865H121.948V117.604H123.01Z" fill="#1F2A37"/>
<path d="M124.545 117.604V117.865H123.483V117.604H124.545Z" fill="#1F2A37"/>
<path d="M126.08 117.604V117.865H125.019V117.604H126.08Z" fill="#1F2A37"/>
<path d="M127.616 117.604V117.865H126.554V117.604H127.616Z" fill="#1F2A37"/>
<path d="M129.151 117.604V117.865H128.089V117.604H129.151Z" fill="#1F2A37"/>
<path d="M130.686 117.604V117.865H129.624V117.604H130.686Z" fill="#1F2A37"/>
<path d="M132.221 117.604V117.865H131.159V117.604H132.221Z" fill="#1F2A37"/>
<path d="M133.756 117.604V117.865H132.694V117.604H133.756Z" fill="#1F2A37"/>
<path d="M135.291 117.604V117.865H134.229V117.604H135.291Z" fill="#1F2A37"/>
<path d="M136.826 117.604V117.865H135.764V117.604H136.826Z" fill="#1F2A37"/>
<path d="M138.361 117.604V117.865H137.3V117.604H138.361Z" fill="#1F2A37"/>
<path d="M87.5086 60.6431L87.5388 59.8132L86.8371 60.2584L86.656 59.9415L87.3954 59.5567L86.656 59.1719L86.8371 58.855L87.5388 59.3002L87.5086 58.4702H87.8707L87.8406 59.3002L88.5422 58.855L88.7233 59.1719L87.9839 59.5567L88.7233 59.9415L88.5422 60.2584L87.8406 59.8132L87.8707 60.6431H87.5086Z" fill="#1F2A37"/>
<path d="M90.1644 60.6431L90.1946 59.8132L89.4929 60.2584L89.3118 59.9415L90.0512 59.5567L89.3118 59.1719L89.4929 58.855L90.1946 59.3002L90.1644 58.4702H90.5265L90.4964 59.3002L91.198 58.855L91.3791 59.1719L90.6397 59.5567L91.3791 59.9415L91.198 60.2584L90.4964 59.8132L90.5265 60.6431H90.1644Z" fill="#1F2A37"/>
<path d="M92.8202 60.6431L92.8504 59.8132L92.1487 60.2584L91.9676 59.9415L92.707 59.5567L91.9676 59.1719L92.1487 58.855L92.8504 59.3002L92.8202 58.4702H93.1823L93.1522 59.3002L93.8538 58.855L94.0349 59.1719L93.2955 59.5567L94.0349 59.9415L93.8538 60.2584L93.1522 59.8132L93.1823 60.6431H92.8202Z" fill="#1F2A37"/>
<path d="M99.4036 58.583C99.3809 58.3919 99.2891 58.2435 99.1282 58.1379C98.9672 58.0322 98.7698 57.9794 98.5359 57.9794C98.3649 57.9794 98.2152 58.0071 98.087 58.0624C97.96 58.1177 97.8606 58.1938 97.789 58.2906C97.7185 58.3875 97.6833 58.4975 97.6833 58.6207C97.6833 58.7239 97.7078 58.8125 97.7569 58.8867C97.8072 58.9596 97.8713 59.0206 97.9493 59.0697C98.0272 59.1174 98.109 59.1571 98.1945 59.1885C98.28 59.2187 98.3586 59.2432 98.4303 59.2621L98.8226 59.3677C98.9232 59.3941 99.0351 59.4306 99.1583 59.4771C99.2828 59.5236 99.4017 59.5871 99.5148 59.6676C99.6293 59.7468 99.7236 59.8487 99.7978 59.9732C99.872 60.0977 99.9091 60.2504 99.9091 60.4315C99.9091 60.6403 99.8544 60.8289 99.745 60.9974C99.6368 61.1659 99.4784 61.2998 99.2696 61.3991C99.0622 61.4985 98.81 61.5482 98.5133 61.5482C98.2366 61.5482 97.9971 61.5035 97.7946 61.4142C97.5934 61.325 97.435 61.2005 97.3193 61.0408C97.2049 60.8811 97.1401 60.6956 97.125 60.4843H97.6079C97.6204 60.6302 97.6695 60.7509 97.755 60.8465C97.8418 60.9408 97.9512 61.0112 98.0832 61.0577C98.2165 61.103 98.3598 61.1256 98.5133 61.1256C98.6918 61.1256 98.8522 61.0967 98.9942 61.0389C99.1363 60.9798 99.2489 60.898 99.3319 60.7937C99.4149 60.688 99.4564 60.5648 99.4564 60.424C99.4564 60.2957 99.4205 60.1913 99.3489 60.1109C99.2772 60.0304 99.1829 59.965 99.0659 59.9147C98.949 59.8644 98.8226 59.8204 98.6868 59.7827L98.2115 59.6468C97.9097 59.5601 97.6707 59.4362 97.4947 59.2753C97.3187 59.1143 97.2306 58.9037 97.2306 58.6434C97.2306 58.4271 97.2891 58.2385 97.406 58.0775C97.5243 57.9153 97.6827 57.7895 97.8814 57.7003C98.0813 57.6097 98.3045 57.5645 98.551 57.5645C98.8 57.5645 99.0213 57.6091 99.2149 57.6984C99.4086 57.7864 99.562 57.9071 99.6752 58.0605C99.7896 58.2139 99.85 58.3881 99.8563 58.583H99.4036Z" fill="#1F2A37"/>
<path d="M102.444 60.2957V58.583H102.889V61.4803H102.444V60.9898H102.414C102.346 61.137 102.24 61.2621 102.097 61.3652C101.953 61.4671 101.772 61.518 101.553 61.518C101.372 61.518 101.211 61.4784 101.071 61.3991C100.93 61.3187 100.819 61.1979 100.739 61.037C100.658 60.8748 100.618 60.6704 100.618 60.424V58.583H101.063V60.3938C101.063 60.605 101.122 60.7735 101.24 60.8993C101.36 61.025 101.512 61.0879 101.697 61.0879C101.807 61.0879 101.92 61.0596 102.034 61.003C102.15 60.9465 102.247 60.8597 102.325 60.7427C102.404 60.6258 102.444 60.4768 102.444 60.2957Z" fill="#1F2A37"/>
<path d="M104.881 61.5406C104.61 61.5406 104.376 61.4765 104.179 61.3482C103.983 61.22 103.832 61.0433 103.727 60.8182C103.621 60.5931 103.568 60.3359 103.568 60.0467C103.568 59.7525 103.622 59.4928 103.731 59.2677C103.84 59.0414 103.992 58.8647 104.187 58.7377C104.383 58.6094 104.612 58.5453 104.874 58.5453C105.077 58.5453 105.261 58.583 105.424 58.6585C105.588 58.7339 105.722 58.8395 105.826 58.9753C105.931 59.1112 105.995 59.2696 106.02 59.4507H105.575C105.541 59.3186 105.466 59.2017 105.349 59.0998C105.233 58.9967 105.077 58.9452 104.881 58.9452C104.708 58.9452 104.555 58.9904 104.425 59.081C104.295 59.1703 104.194 59.2966 104.121 59.4601C104.049 59.6223 104.013 59.8128 104.013 60.0316C104.013 60.2555 104.049 60.4504 104.119 60.6164C104.191 60.7824 104.291 60.9112 104.421 61.003C104.552 61.0948 104.705 61.1407 104.881 61.1407C104.997 61.1407 105.102 61.1206 105.196 61.0804C105.29 61.0401 105.37 60.9823 105.436 60.9068C105.501 60.8314 105.548 60.7409 105.575 60.6352H106.02C105.995 60.8062 105.933 60.9603 105.834 61.0974C105.736 61.2332 105.605 61.3413 105.443 61.4218C105.282 61.501 105.095 61.5406 104.881 61.5406Z" fill="#1F2A37"/>
<path d="M107.848 61.5406C107.577 61.5406 107.343 61.4765 107.147 61.3482C106.95 61.22 106.799 61.0433 106.694 60.8182C106.588 60.5931 106.535 60.3359 106.535 60.0467C106.535 59.7525 106.589 59.4928 106.698 59.2677C106.807 59.0414 106.959 58.8647 107.154 58.7377C107.35 58.6094 107.579 58.5453 107.841 58.5453C108.044 58.5453 108.228 58.583 108.391 58.6585C108.555 58.7339 108.689 58.8395 108.793 58.9753C108.898 59.1112 108.962 59.2696 108.987 59.4507H108.542C108.508 59.3186 108.433 59.2017 108.316 59.0998C108.2 58.9967 108.044 58.9452 107.848 58.9452C107.675 58.9452 107.522 58.9904 107.392 59.081C107.262 59.1703 107.161 59.2966 107.088 59.4601C107.016 59.6223 106.981 59.8128 106.981 60.0316C106.981 60.2555 107.016 60.4504 107.086 60.6164C107.158 60.7824 107.258 60.9112 107.388 61.003C107.519 61.0948 107.672 61.1407 107.848 61.1407C107.964 61.1407 108.069 61.1206 108.163 61.0804C108.257 61.0401 108.337 60.9823 108.403 60.9068C108.468 60.8314 108.515 60.7409 108.542 60.6352H108.987C108.962 60.8062 108.9 60.9603 108.801 61.0974C108.703 61.2332 108.572 61.3413 108.41 61.4218C108.249 61.501 108.062 61.5406 107.848 61.5406Z" fill="#1F2A37"/>
<path d="M110.853 61.5406C110.574 61.5406 110.333 61.479 110.131 61.3558C109.929 61.2313 109.774 61.0577 109.665 60.8352C109.556 60.6113 109.502 60.351 109.502 60.0543C109.502 59.7575 109.556 59.4959 109.665 59.2696C109.774 59.042 109.926 58.8647 110.121 58.7377C110.317 58.6094 110.546 58.5453 110.808 58.5453C110.959 58.5453 111.108 58.5704 111.255 58.6207C111.402 58.671 111.536 58.7528 111.656 58.8659C111.777 58.9779 111.873 59.1262 111.945 59.3111C112.017 59.4959 112.053 59.7236 112.053 59.9939V60.1825H109.819V59.7977H111.6C111.6 59.6343 111.567 59.4884 111.502 59.3601C111.438 59.2319 111.346 59.1306 111.226 59.0565C111.108 58.9823 110.969 58.9452 110.808 58.9452C110.63 58.9452 110.477 58.9892 110.347 59.0772C110.219 59.164 110.12 59.2771 110.051 59.4167C109.982 59.5563 109.948 59.7059 109.948 59.8656V60.1222C109.948 60.341 109.985 60.5265 110.061 60.6786C110.137 60.8295 110.244 60.9446 110.379 61.0238C110.515 61.1018 110.673 61.1407 110.853 61.1407C110.97 61.1407 111.076 61.1244 111.17 61.0917C111.265 61.0577 111.348 61.0074 111.417 60.9408C111.486 60.8729 111.54 60.7886 111.577 60.688L112.007 60.8088C111.962 60.9546 111.886 61.0829 111.779 61.1935C111.672 61.3029 111.54 61.3885 111.383 61.4501C111.226 61.5104 111.049 61.5406 110.853 61.5406Z" fill="#1F2A37"/>
<path d="M114.782 59.2319L114.382 59.345C114.357 59.2784 114.32 59.2136 114.271 59.1508C114.223 59.0866 114.158 59.0338 114.075 58.9923C113.992 58.9508 113.885 58.9301 113.756 58.9301C113.579 58.9301 113.431 58.9709 113.313 59.0527C113.196 59.1332 113.137 59.2356 113.137 59.3601C113.137 59.4708 113.177 59.5582 113.258 59.6223C113.338 59.6865 113.464 59.7399 113.635 59.7827L114.065 59.8883C114.324 59.9512 114.517 60.0474 114.644 60.1769C114.771 60.3051 114.835 60.4705 114.835 60.673C114.835 60.8389 114.787 60.9873 114.691 61.1181C114.597 61.2489 114.465 61.352 114.295 61.4274C114.126 61.5029 113.928 61.5406 113.703 61.5406C113.408 61.5406 113.163 61.4765 112.969 61.3482C112.776 61.22 112.653 61.0326 112.601 60.7861L113.024 60.6805C113.064 60.8364 113.14 60.9534 113.252 61.0313C113.365 61.1093 113.513 61.1483 113.695 61.1483C113.903 61.1483 114.068 61.1043 114.19 61.0162C114.313 60.927 114.375 60.8201 114.375 60.6956C114.375 60.595 114.339 60.5107 114.269 60.4428C114.198 60.3737 114.09 60.3221 113.944 60.2882L113.462 60.175C113.196 60.1121 113.001 60.0147 112.877 59.8826C112.754 59.7493 112.692 59.5827 112.692 59.3828C112.692 59.2193 112.738 59.0747 112.83 58.9489C112.923 58.8232 113.049 58.7245 113.209 58.6528C113.37 58.5811 113.552 58.5453 113.756 58.5453C114.043 58.5453 114.268 58.6082 114.431 58.7339C114.596 58.8597 114.713 59.0256 114.782 59.2319Z" fill="#1F2A37"/>
<path d="M117.557 59.2319L117.157 59.345C117.132 59.2784 117.095 59.2136 117.046 59.1508C116.998 59.0866 116.933 59.0338 116.85 58.9923C116.767 58.9508 116.66 58.9301 116.531 58.9301C116.354 58.9301 116.206 58.9709 116.088 59.0527C115.971 59.1332 115.912 59.2356 115.912 59.3601C115.912 59.4708 115.953 59.5582 116.033 59.6223C116.113 59.6865 116.239 59.7399 116.41 59.7827L116.84 59.8883C117.099 59.9512 117.292 60.0474 117.419 60.1769C117.546 60.3051 117.61 60.4705 117.61 60.673C117.61 60.8389 117.562 60.9873 117.467 61.1181C117.372 61.2489 117.24 61.352 117.07 61.4274C116.901 61.5029 116.703 61.5406 116.478 61.5406C116.183 61.5406 115.938 61.4765 115.744 61.3482C115.551 61.22 115.428 61.0326 115.377 60.7861L115.799 60.6805C115.839 60.8364 115.915 60.9534 116.027 61.0313C116.14 61.1093 116.288 61.1483 116.471 61.1483C116.678 61.1483 116.843 61.1043 116.965 61.0162C117.088 60.927 117.15 60.8201 117.15 60.6956C117.15 60.595 117.114 60.5107 117.044 60.4428C116.974 60.3737 116.865 60.3221 116.72 60.2882L116.237 60.175C115.971 60.1121 115.776 60.0147 115.652 59.8826C115.529 59.7493 115.467 59.5827 115.467 59.3828C115.467 59.2193 115.513 59.0747 115.605 58.9489C115.698 58.8232 115.824 58.7245 115.984 58.6528C116.145 58.5811 116.327 58.5453 116.531 58.5453C116.818 58.5453 117.043 58.6082 117.206 58.7339C117.371 58.8597 117.488 59.0256 117.557 59.2319Z" fill="#1F2A37"/>
<path d="M121.552 60.6431L121.582 59.8132L120.881 60.2584L120.7 59.9415L121.439 59.5567L120.7 59.1719L120.881 58.855L121.582 59.3002L121.552 58.4702H121.914L121.884 59.3002L122.586 58.855L122.767 59.1719L122.028 59.5567L122.767 59.9415L122.586 60.2584L121.884 59.8132L121.914 60.6431H121.552Z" fill="#1F2A37"/>
<path d="M124.208 60.6431L124.238 59.8132L123.537 60.2584L123.356 59.9415L124.095 59.5567L123.356 59.1719L123.537 58.855L124.238 59.3002L124.208 58.4702H124.57L124.54 59.3002L125.242 58.855L125.423 59.1719L124.683 59.5567L125.423 59.9415L125.242 60.2584L124.54 59.8132L124.57 60.6431H124.208Z" fill="#1F2A37"/>
<path d="M126.864 60.6431L126.894 59.8132L126.192 60.2584L126.011 59.9415L126.751 59.5567L126.011 59.1719L126.192 58.855L126.894 59.3002L126.864 58.4702H127.226L127.196 59.3002L127.898 58.855L128.079 59.1719L127.339 59.5567L128.079 59.9415L127.898 60.2584L127.196 59.8132L127.226 60.6431H126.864Z" fill="#1F2A37"/>
<path d="M85.4512 128V122.612H83.5V121.659H88.5405V122.612H86.585V128H85.4512Z" fill="black"/>
<path d="M89.7271 128V121.659H90.8608V124.295H93.9458V121.659H95.0752V128H93.9458V125.249H90.8608V128H89.7271Z" fill="black"/>
<path d="M96.1738 128L98.4238 121.659H99.7026L101.953 128H100.766L100.234 126.361H97.8877L97.3604 128H96.1738ZM99.0259 122.836L98.1733 125.486H99.9531L99.1006 122.836H99.0259Z" fill="black"/>
<path d="M103.042 128V121.659H104.027L107.143 126.027H107.213V121.659H108.303V128H107.323L104.207 123.632H104.137V128H103.042Z" fill="black"/>
<path d="M109.872 128V121.659H111.005V124.59H111.08L113.581 121.659H114.881L112.491 124.423L115.07 128H113.686L111.682 125.174L111.005 125.961V128H109.872Z" fill="black"/>
<path d="M120.247 128V125.5L118.023 121.659H119.263L120.774 124.379H120.849L122.361 121.659H123.6L121.376 125.5V128H120.247Z" fill="black"/>
<path d="M127.081 128.158C125.222 128.158 124.079 126.871 124.079 124.832V124.823C124.079 122.779 125.239 121.5 127.081 121.5C128.926 121.5 130.078 122.779 130.078 124.823V124.832C130.078 126.871 128.931 128.158 127.081 128.158ZM127.081 127.178C128.21 127.178 128.922 126.255 128.922 124.832V124.823C128.922 123.39 128.206 122.48 127.081 122.48C125.956 122.48 125.235 123.39 125.235 124.823V124.832C125.235 126.255 125.938 127.178 127.081 127.178Z" fill="black"/>
<path d="M133.98 128.158C132.376 128.158 131.374 127.213 131.374 125.816V121.659H132.508V125.724C132.508 126.598 133.04 127.178 133.984 127.178C134.925 127.178 135.452 126.598 135.452 125.724V121.659H136.586V125.816C136.586 127.213 135.593 128.158 133.98 128.158Z" fill="black"/>
<path d="M99.1904 91.0747L110.19 102.075L128.524 80.0747" stroke="#0157E0" stroke-width="7" stroke-linecap="round" stroke-linejoin="round"/>
<defs>
<filter id="filter0_dd_21673_12383" x="38" y="41" width="137" height="155" filterUnits="userSpaceOnUse" color-interpolation-filters="sRGB">
<feFlood flood-opacity="0" result="BackgroundImageFix"/>
<feColorMatrix in="SourceAlpha" type="matrix" values="0 0 0 0 0 0 0 0 0 0 0 0 0 0 0 0 0 0 127 0" result="hardAlpha"/>
<feMorphology radius="4" operator="erode" in="SourceAlpha" result="effect1_dropShadow_21673_12383"/>
<feOffset dy="20"/>
<feGaussianBlur stdDeviation="12"/>
<feComposite in2="hardAlpha" operator="out"/>
<feColorMatrix type="matrix" values="0 0 0 0 0.121569 0 0 0 0 0.164706 0 0 0 0 0.215686 0 0 0 0.08 0"/>
<feBlend mode="normal" in2="BackgroundImageFix" result="effect1_dropShadow_21673_12383"/>
<feColorMatrix in="SourceAlpha" type="matrix" values="0 0 0 0 0 0 0 0 0 0 0 0 0 0 0 0 0 0 127 0" result="hardAlpha"/>
<feMorphology radius="4" operator="erode" in="SourceAlpha" result="effect2_dropShadow_21673_12383"/>
<feOffset dy="8"/>
<feGaussianBlur stdDeviation="4"/>
<feComposite in2="hardAlpha" operator="out"/>
<feColorMatrix type="matrix" values="0 0 0 0 0.121569 0 0 0 0 0.164706 0 0 0 0 0.215686 0 0 0 0.03 0"/>
<feBlend mode="normal" in2="effect1_dropShadow_21673_12383" result="effect2_dropShadow_21673_12383"/>
<feBlend mode="normal" in="SourceGraphic" in2="effect2_dropShadow_21673_12383" result="shape"/>
</filter>
</defs>
</svg>
