<svg width="36" height="36" viewBox="0 0 36 36" fill="none" xmlns="http://www.w3.org/2000/svg">
<circle cx="18" cy="18" r="18" fill="#F2F7FF"/>
<path d="M9.09265 15.4045H26.9166" stroke="#0157E0" stroke-width="1.5" stroke-linecap="round" stroke-linejoin="round"/>
<path d="M22.4421 19.3097H22.4514" stroke="#0157E0" stroke-width="1.5" stroke-linecap="round" stroke-linejoin="round"/>
<path d="M18.0046 19.3097H18.0139" stroke="#0157E0" stroke-width="1.5" stroke-linecap="round" stroke-linejoin="round"/>
<path d="M13.5579 19.3097H13.5672" stroke="#0157E0" stroke-width="1.5" stroke-linecap="round" stroke-linejoin="round"/>
<path d="M22.4421 23.1964H22.4514" stroke="#0157E0" stroke-width="1.5" stroke-linecap="round" stroke-linejoin="round"/>
<path d="M18.0046 23.1964H18.0139" stroke="#0157E0" stroke-width="1.5" stroke-linecap="round" stroke-linejoin="round"/>
<path d="M13.5579 23.1964H13.5672" stroke="#0157E0" stroke-width="1.5" stroke-linecap="round" stroke-linejoin="round"/>
<path d="M22.0438 8V11.2908" stroke="#0157E0" stroke-width="1.5" stroke-linecap="round" stroke-linejoin="round"/>
<path d="M13.9655 8V11.2908" stroke="#0157E0" stroke-width="1.5" stroke-linecap="round" stroke-linejoin="round"/>
<path fill-rule="evenodd" clip-rule="evenodd" d="M22.2383 9.5791H13.771C10.8343 9.5791 9 11.215 9 14.2221V23.2718C9 26.3261 10.8343 27.9999 13.771 27.9999H22.229C25.175 27.9999 27 26.3545 27 23.3474V14.2221C27.0092 11.215 25.1842 9.5791 22.2383 9.5791Z" stroke="#0157E0" stroke-width="1.5" stroke-linecap="round" stroke-linejoin="round"/>
</svg>
