<svg width="24" height="24" viewBox="0 0 24 24" fill="none" xmlns="http://www.w3.org/2000/svg">
<circle cx="9.33325" cy="9" r="2" stroke="#733DF2" stroke-width="1.5"/>
<path d="M13.3333 15C13.3333 16.1046 13.3333 17 9.33325 17C5.33325 17 5.33325 16.1046 5.33325 15C5.33325 13.8954 7.12411 13 9.33325 13C11.5424 13 13.3333 13.8954 13.3333 15Z" stroke="#733DF2" stroke-width="1.5"/>
<path opacity="0.5" d="M2.33325 12C2.33325 8.22876 2.33325 6.34315 3.50482 5.17157C4.6764 4 6.56202 4 10.3333 4H14.3333C18.1045 4 19.9901 4 21.1617 5.17157C22.3333 6.34315 22.3333 8.22876 22.3333 12C22.3333 15.7712 22.3333 17.6569 21.1617 18.8284C19.9901 20 18.1045 20 14.3333 20H10.3333C6.56202 20 4.6764 20 3.50482 18.8284C2.33325 17.6569 2.33325 15.7712 2.33325 12Z" stroke="#733DF2" stroke-width="1.5"/>
<path d="M19.3333 12H15.3333" stroke="#733DF2" stroke-width="1.5" stroke-linecap="round"/>
<path d="M19.3333 9H14.3333" stroke="#733DF2" stroke-width="1.5" stroke-linecap="round"/>
<path opacity="0.9" d="M19.3333 15H16.3333" stroke="#733DF2" stroke-width="1.5" stroke-linecap="round"/>
</svg>
