<svg width="40" height="40" viewBox="0 0 40 40" fill="none" xmlns="http://www.w3.org/2000/svg">
<path d="M5.82811 32.3574C4.81717 31.745 5.01717 30.9372 5.01717 30.5779V9.67587C5.01717 8.4854 4.99686 7.77923 6.69218 6.88247C9.85468 5.20768 18.3422 0.431727 18.3422 0.431727C19.3672 -0.135389 20.625 -0.135389 21.65 0.431727L33.2985 6.88247C35.0047 7.81204 34.9735 8.52133 34.9735 9.67587V22.5664C34.9672 23.7147 34.9766 24.6709 33.2985 25.3458C30.2891 26.5566 24.55 29.6296 21.6719 31.1278C20.6203 31.6747 20.0235 32.7698 19.9953 33.9259C19.9891 34.1493 20.0016 37.6505 19.9953 37.8754C19.975 38.6253 19.8438 40.6251 17.6953 39.8002C17.4516 39.7065 17.2953 39.533 16.8188 39.2331C13.9938 37.4505 5.82811 32.3589 5.82811 32.3589V32.3574Z" fill="url(#paint0_linear_25042_4307)"/>
<path d="M19.9953 0.423866C20.5031 0.423866 21.0047 0.553537 21.4469 0.797256L33.0985 7.24957C34.5563 8.04322 34.5547 8.53534 34.5547 9.61489V22.2602L34.5047 22.2758L34.5547 22.5992C34.5485 23.7194 34.5438 24.3958 33.1422 24.9583C30.5625 25.9956 25.9735 28.4016 22.9391 29.9936C22.4016 30.2763 21.9078 30.5341 21.4797 30.7575C20.3406 31.3512 19.6109 32.562 19.5781 33.9165C19.575 34.0227 19.5766 34.7117 19.5781 35.8319C19.5781 36.7333 19.5813 37.7551 19.5781 37.8644C19.5359 39.4002 19.0047 39.5783 18.6078 39.5783C18.3938 39.5783 18.1375 39.522 17.8469 39.4096C17.7609 39.3768 17.6828 39.3221 17.5281 39.2096C17.4063 39.1221 17.2563 39.0127 17.0438 38.8784C14.25 37.1145 6.13279 32.0542 6.04685 32.0011C5.37966 31.5965 5.40779 31.134 5.42966 30.7622C5.43279 30.6982 5.43748 30.6388 5.43748 30.581V9.6352C5.43748 8.52597 5.43748 8.01978 6.88904 7.25113C10.0187 5.59353 18.4625 0.844125 18.5438 0.797256C18.9844 0.553537 19.4859 0.423866 19.9953 0.423866ZM19.9953 0.00516891C19.425 0.00516891 18.8547 0.147338 18.3422 0.430115C18.3422 0.430115 9.85467 5.20607 6.69373 6.88086C4.99998 7.77762 5.01873 8.48379 5.01873 9.67426V30.5763C5.01873 30.9356 4.81716 31.7433 5.82967 32.3558C5.82967 32.3558 13.9953 37.4458 16.8203 39.2299C17.2969 39.5299 17.4531 39.7033 17.6969 39.797C18.0531 39.9345 18.3547 39.9923 18.6078 39.9923C19.8859 39.9923 19.9797 38.4972 19.9969 37.8723C20.0031 37.6488 19.9906 34.1477 19.9969 33.9228C20.025 32.7667 20.6219 31.6715 21.6735 31.1247C24.5516 29.6264 30.2907 26.5534 33.3 25.3426C34.9782 24.6677 34.9672 23.7115 34.975 22.5633V9.67582C34.975 8.52128 35.0063 7.81043 33.3 6.88242L21.6485 0.431678C21.1375 0.147338 20.5656 0.00516891 19.9953 0.00516891Z" fill="url(#paint1_linear_25042_4307)"/>
<path d="M34.9157 23.4084L20.1875 15.8109L5.01876 22.4788V30.634C4.98907 31.248 4.98595 31.9089 5.87032 32.3791C6.40157 32.6619 7.35939 33.3118 7.35939 33.3118L11.9906 36.2099L17.5657 39.7329C17.5657 39.7329 19.9313 41.039 19.9969 37.8753V33.9633C19.9969 33.9633 19.9125 32.126 21.625 31.1527L25.7219 29.0124L30.3829 26.6611L33.1673 25.3941C33.1673 25.3941 34.8407 24.9441 34.9173 23.4099L34.9157 23.4084Z" fill="url(#paint2_linear_25042_4307)"/>
<path d="M20.186 0.00518799V15.8094L5.01718 22.4774V10.0008L5.02031 9.35088C5.02031 9.35088 4.73749 7.95418 6.28281 7.11366C7.74219 6.29814 17.7875 0.862892 17.7735 0.756656C17.7735 0.756656 19.0657 -0.0276204 20.186 0.00675029V0.00518799Z" fill="url(#paint3_linear_25042_4307)"/>
<path d="M20.186 0.00525055V15.8095L34.9141 23.407C34.9141 23.407 34.9891 23.2039 34.975 21.6775C34.9516 19.0435 34.9719 9.84307 34.9719 9.84307C34.9719 9.84307 35.3157 8.03705 33.5672 7.03249C32.0579 6.15135 22.3203 0.800463 22.3203 0.800463C22.3203 0.800463 21.1891 -0.0478677 20.1844 0.00212594L20.186 0.00525055Z" fill="url(#paint4_linear_25042_4307)"/>
<path d="M20.1703 15.7567L5.4328 22.2965" stroke="url(#paint5_linear_25042_4307)" stroke-width="2.68" stroke-miterlimit="10"/>
<path d="M20.186 15.7567L34.5251 23.2073" stroke="url(#paint6_linear_25042_4307)" stroke-width="2.68" stroke-linecap="round" stroke-linejoin="round"/>
<path d="M20.186 0.438354V15.8114" stroke="url(#paint7_linear_25042_4307)" stroke-width="2.68" stroke-miterlimit="10"/>
<path d="M29.3219 21.4802L20.7579 26.5499C20.2579 26.8327 19.6407 26.8327 19.1422 26.5499L10.5938 21.4802C10.5938 21.4802 9.47815 19.8461 9.87815 18.5618C9.71097 19.1961 9.94534 19.9289 10.5938 20.3132L19.1579 25.3657C19.6579 25.6656 20.2751 25.6656 20.7751 25.3657L29.3391 20.3132C30.2063 19.7961 30.3391 18.6962 29.7719 17.9791C30.2219 18.379 30.6391 20.2632 29.3219 21.4802Z" fill="white"/>
<g opacity="0.7">
<path d="M29.7719 17.9777L29.7547 17.9605C29.6547 17.8277 29.5047 17.6934 29.3375 17.5934L20.7735 12.5409C20.2735 12.2409 19.6578 12.2409 19.1563 12.5409C19.1563 12.5409 12.6969 16.2717 10.5922 17.5934C10.5406 17.6246 10.5031 17.6699 10.4422 17.7262C10.2391 17.9152 10.0594 18.0933 9.95937 18.3261C9.92656 18.3933 9.89218 18.4761 9.87656 18.5589C9.70937 19.1932 9.94374 19.9259 10.5922 20.3102L19.1563 25.3627C19.6563 25.6627 20.2735 25.6627 20.7735 25.3627L29.3375 20.3102C30.2047 19.7931 30.3375 18.6933 29.7704 17.9762L29.7719 17.9777Z" fill="white"/>
</g>
<path d="M29.3219 15.4138L20.7579 20.4834C20.2579 20.7678 19.6407 20.7678 19.1422 20.4834L10.5938 15.4138C10.5938 15.4138 9.47815 13.7796 9.87815 12.4954C9.71097 13.1297 9.94534 13.8624 10.5938 14.2467L19.1579 19.2992C19.6579 19.5992 20.2751 19.5992 20.7751 19.2992L29.3391 14.2467C30.1891 13.7296 30.3391 12.6282 29.7719 11.9111C30.2219 12.311 30.6391 14.1795 29.3219 15.4122V15.4138Z" fill="white"/>
<g opacity="0.9">
<path d="M29.7719 11.9106L29.7548 11.8934C29.6548 11.7435 29.5048 11.6263 29.3376 11.5263L20.7735 6.47381C20.2735 6.17385 19.6579 6.17385 19.1563 6.47381L10.5922 11.5263C10.5422 11.5591 10.5094 11.5763 10.4594 11.6435H10.4422L10.4266 11.6591C10.3094 11.7263 10.1938 11.8434 10.1438 11.9591C10.061 12.0419 10.011 12.1418 9.96096 12.2418C9.92814 12.3246 9.89377 12.409 9.87814 12.4918C9.71096 13.1261 9.94533 13.8588 10.5938 14.2431L19.1579 19.2956C19.6579 19.5956 20.275 19.5956 20.775 19.2956L29.3391 14.2431C30.1891 13.726 30.3391 12.6246 29.7719 11.9075V11.9106Z" fill="white"/>
</g>
<defs>
<linearGradient id="paint0_linear_25042_4307" x1="5.30311" y1="29.7108" x2="31.4676" y2="7.75248" gradientUnits="userSpaceOnUse">
<stop offset="0.13" stop-color="#8A00FF"/>
<stop offset="0.59" stop-color="#005CEA"/>
<stop offset="1" stop-color="#00B4EA"/>
</linearGradient>
<linearGradient id="paint1_linear_25042_4307" x1="3.50153" y1="28.8187" x2="35.8917" y2="10.1159" gradientUnits="userSpaceOnUse">
<stop stop-color="white" stop-opacity="0.05"/>
<stop offset="0.25" stop-color="white" stop-opacity="0.6"/>
<stop offset="0.75" stop-color="white" stop-opacity="0.6"/>
<stop offset="1" stop-color="white" stop-opacity="0.05"/>
</linearGradient>
<linearGradient id="paint2_linear_25042_4307" x1="23.0376" y1="18.234" x2="12.1458" y2="35.7674" gradientUnits="userSpaceOnUse">
<stop offset="0.11" stop-color="white" stop-opacity="0"/>
<stop offset="0.7" stop-color="white" stop-opacity="0.5"/>
<stop offset="1" stop-color="white" stop-opacity="0"/>
</linearGradient>
<linearGradient id="paint3_linear_25042_4307" x1="9.70313" y1="4.15779" x2="18.8918" y2="26.6183" gradientUnits="userSpaceOnUse">
<stop offset="0.11" stop-color="white" stop-opacity="0"/>
<stop offset="0.7" stop-color="white" stop-opacity="0.5"/>
<stop offset="1" stop-color="white" stop-opacity="0"/>
</linearGradient>
<linearGradient id="paint4_linear_25042_4307" x1="29.9235" y1="5.80139" x2="20.3146" y2="29.7274" gradientUnits="userSpaceOnUse">
<stop offset="0.11" stop-color="white" stop-opacity="0"/>
<stop offset="0.7" stop-color="white" stop-opacity="0.5"/>
<stop offset="1" stop-color="white" stop-opacity="0"/>
</linearGradient>
<linearGradient id="paint5_linear_25042_4307" x1="5.34843" y1="19.0266" x2="20.2547" y2="19.0266" gradientUnits="userSpaceOnUse">
<stop stop-color="white" stop-opacity="0"/>
<stop offset="0.49" stop-color="white" stop-opacity="0.3"/>
<stop offset="1" stop-color="white" stop-opacity="0"/>
</linearGradient>
<linearGradient id="paint6_linear_25042_4307" x1="19.9766" y1="19.4828" x2="34.7344" y2="19.4828" gradientUnits="userSpaceOnUse">
<stop stop-color="white" stop-opacity="0"/>
<stop offset="0.5" stop-color="white" stop-opacity="0.3"/>
<stop offset="1" stop-color="white" stop-opacity="0"/>
</linearGradient>
<linearGradient id="paint7_linear_25042_4307" x1="20" y1="0" x2="20" y2="40" gradientUnits="userSpaceOnUse">
<stop stop-color="white" stop-opacity="0"/>
<stop offset="0.5" stop-color="white" stop-opacity="0.3"/>
<stop offset="1" stop-color="white" stop-opacity="0"/>
</linearGradient>
</defs>
</svg>
