<svg width="121" height="120" viewBox="0 0 121 120" fill="none" xmlns="http://www.w3.org/2000/svg">
<circle cx="60.5" cy="60" r="60" fill="#F2F7FF"/>
<circle cx="60.5" cy="60" r="40" fill="#DEEBFF"/>
<rect x="39" y="38.5" width="43" height="43" rx="21.5" fill="#F2F7FF"/>
<rect x="39" y="38.5" width="43" height="43" rx="21.5" stroke="#A1C5FF"/>
<g clip-path="url(#clip0_137_8528)">
<path fill-rule="evenodd" clip-rule="evenodd" d="M50.5 60C50.5 54.4772 54.9772 50 60.5 50C66.0228 50 70.5 54.4772 70.5 60V63C70.5 64.9002 69.1751 66.4909 67.3987 66.8987C66.9909 68.6751 65.4002 70 63.5 70H59.5C58.9477 70 58.5 69.5523 58.5 69C58.5 68.4477 58.9477 68 59.5 68H63.5C64.3316 68 65.0447 67.4924 65.3463 66.7702C64.2621 66.3181 63.5 65.248 63.5 64V60C63.5 58.3431 64.8431 57 66.5 57H67.5C67.6463 57 67.7901 57.0105 67.9308 57.0307C66.7518 54.0826 63.8691 52 60.5 52C57.1309 52 54.2482 54.0826 53.0692 57.0307C53.2099 57.0105 53.3537 57 53.5 57H54.5C56.1569 57 57.5 58.3431 57.5 60V64C57.5 65.6569 56.1569 67 54.5 67C52.2909 67 50.5 65.2091 50.5 63V60ZM52.5 63C52.5 64.1046 53.3954 65 54.5 65C55.0523 65 55.5 64.5523 55.5 64V60C55.5 59.4477 55.0523 59 54.5 59H53.5C52.9477 59 52.5 59.4477 52.5 60V63ZM68.5 60C68.5 59.4477 68.0523 59 67.5 59H66.5C65.9477 59 65.5 59.4477 65.5 60V64C65.5 64.5523 65.9477 65 66.5 65C67.6046 65 68.5 64.1046 68.5 63V60Z" fill="#0157E0"/>
</g>
<defs>
<clipPath id="clip0_137_8528">
<rect width="20" height="20" fill="white" transform="translate(50.5 50)"/>
</clipPath>
</defs>
</svg>
