<svg width="36" height="36" viewBox="0 0 36 36" fill="none" xmlns="http://www.w3.org/2000/svg">
<path d="M8 0.5H28C32.1421 0.5 35.5 3.85786 35.5 8V28C35.5 32.1421 32.1421 35.5 28 35.5H8C3.85786 35.5 0.5 32.1421 0.5 28V8C0.5 3.85786 3.85786 0.5 8 0.5Z" fill="#EFFFF4"/>
<path d="M8 0.5H28C32.1421 0.5 35.5 3.85786 35.5 8V28C35.5 32.1421 32.1421 35.5 28 35.5H8C3.85786 35.5 0.5 32.1421 0.5 28V8C0.5 3.85786 3.85786 0.5 8 0.5Z" stroke="#78DA90"/>
<path d="M24 20V22.6667C24 23.0203 23.8595 23.3594 23.6095 23.6095C23.3594 23.8595 23.0203 24 22.6667 24H13.3333C12.9797 24 12.6406 23.8595 12.3905 23.6095C12.1405 23.3594 12 23.0203 12 22.6667V20" stroke="#079449" stroke-width="1.33333" stroke-linecap="round" stroke-linejoin="round"/>
<path d="M14.6667 16.667L18.0001 20.0003L21.3334 16.667" stroke="#079449" stroke-width="1.33333" stroke-linecap="round" stroke-linejoin="round"/>
<path d="M18 20V12" stroke="#079449" stroke-width="1.33333" stroke-linecap="round" stroke-linejoin="round"/>
</svg>
