<svg width="96" height="96" viewBox="0 0 96 96" fill="none" xmlns="http://www.w3.org/2000/svg">
<path d="M0 48C0 21.4903 21.4903 0 48 0C74.5097 0 96 21.4903 96 48C96 74.5097 74.5097 96 48 96C21.4903 96 0 74.5097 0 48Z" fill="#DBEAFE"/>
<path d="M62 66V62C62 59.8783 61.1571 57.8434 59.6569 56.3431C58.1566 54.8429 56.1217 54 54 54H42C39.8783 54 37.8434 54.8429 36.3431 56.3431C34.8429 57.8434 34 59.8783 34 62V66" stroke="#155DFC" stroke-width="4" stroke-linecap="round" stroke-linejoin="round"/>
<path d="M48 46C52.4183 46 56 42.4183 56 38C56 33.5817 52.4183 30 48 30C43.5817 30 40 33.5817 40 38C40 42.4183 43.5817 46 48 46Z" stroke="#155DFC" stroke-width="4" stroke-linecap="round" stroke-linejoin="round"/>
<path d="M64 80C64 71.1634 71.1634 64 80 64C88.8366 64 96 71.1634 96 80C96 88.8366 88.8366 96 80 96C71.1634 96 64 88.8366 64 80Z" fill="#155DFC"/>
<path d="M81.6666 74.667H78.3333L76.6666 76.667H74.6666C74.313 76.667 73.9738 76.8075 73.7238 77.0575C73.4737 77.3076 73.3333 77.6467 73.3333 78.0003V84.0003C73.3333 84.3539 73.4737 84.6931 73.7238 84.9431C73.9738 85.1932 74.313 85.3337 74.6666 85.3337H85.3333C85.6869 85.3337 86.026 85.1932 86.2761 84.9431C86.5261 84.6931 86.6666 84.3539 86.6666 84.0003V78.0003C86.6666 77.6467 86.5261 77.3076 86.2761 77.0575C86.026 76.8075 85.6869 76.667 85.3333 76.667H83.3333L81.6666 74.667Z" stroke="white" stroke-width="1.33333" stroke-linecap="round" stroke-linejoin="round"/>
<path d="M80 82.667C81.1046 82.667 82 81.7716 82 80.667C82 79.5624 81.1046 78.667 80 78.667C78.8954 78.667 78 79.5624 78 80.667C78 81.7716 78.8954 82.667 80 82.667Z" stroke="white" stroke-width="1.33333" stroke-linecap="round" stroke-linejoin="round"/>
</svg>
