<svg width="40" height="40" viewBox="0 0 40 40" fill="none" xmlns="http://www.w3.org/2000/svg">
<path d="M0 10C0 4.47715 4.47715 0 10 0H30C35.5228 0 40 4.47715 40 10V30C40 35.5228 35.5228 40 30 40H10C4.47715 40 0 35.5228 0 30V10Z" fill="#0A68FF"/>
<path d="M20.2669 31.7998H20.0672C19.9674 31.7 8.70638 28.705 9.00587 11.9733V11.7337L10.5433 9.53741L10.8428 9.49747C11.0424 9.45754 20.2669 8 20.2669 8C20.2669 8 29.5312 9.43757 29.7309 9.49747L29.9705 9.53741L31.5079 11.7337V11.9733C31.7075 20.6387 28.7126 25.5703 26.1769 28.1659C23.4215 31.0012 20.5264 31.7998 20.2669 31.7998ZM10.5632 12.2728C10.3636 26.5287 18.8892 29.7632 20.2868 30.2025C21.7244 29.7632 30.1901 26.5087 30.0104 12.2129L29.072 10.8751C28.0337 10.6355 23.9406 9.63724 20.3068 9.53741C16.6729 9.63724 12.6397 10.6355 11.5416 10.8751L10.5632 12.2728Z" fill="white"/>
<path d="M24.7992 18.4023H16.4333V20.0396H24.7992V18.4023Z" fill="white"/>
<path d="M24.7992 22.5352H16.4333V24.1724H24.7992V22.5352Z" fill="white"/>
<path d="M24.7992 14.2695H16.4333V15.9068H24.7992V14.2695Z" fill="white"/>
<path d="M16.3933 20.6982C15.5947 20.6982 14.8959 19.9994 14.8959 19.1608C14.8959 18.3622 15.5348 17.6234 16.3933 17.6234H20.3267V16.4854H16.3334C14.836 16.4854 13.6979 17.6833 13.6979 19.1808C13.6979 20.6783 14.8959 21.8762 16.3334 21.8762H20.3267V20.6982H16.3933Z" fill="white"/>
</svg>
