<svg width="18" height="22" viewBox="0 0 18 22" fill="none" xmlns="http://www.w3.org/2000/svg">
<g clip-path="url(#clip0_21673_9256)">
<path d="M11.6875 4.125C12.8266 4.125 13.75 3.2016 13.75 2.0625C13.75 0.923398 12.8266 0 11.6875 0C10.5484 0 9.625 0.923398 9.625 2.0625C9.625 3.2016 10.5484 4.125 11.6875 4.125ZM4.88512 13.6413L4.24918 15.1246H1.375C0.615742 15.1246 0 15.7403 0 16.4996C0 17.2588 0.615742 17.8746 1.375 17.8746H4.70293C5.53008 17.8746 6.27473 17.383 6.59828 16.6246L6.97598 15.7429L6.5175 15.4722C5.77328 15.0326 5.22586 14.3821 4.88512 13.6413ZM16.5 9.62457H14.6081L13.4883 7.33648C12.9512 6.23863 11.9651 5.43598 10.8337 5.14766L7.77949 4.2393C6.56348 3.94711 5.29719 4.21566 4.3059 4.97578L2.60133 6.28246C1.99848 6.74437 1.88418 7.60719 2.34695 8.21004C2.80973 8.81289 3.67211 8.9259 4.27453 8.46441L5.97996 7.15773C6.30953 6.90465 6.72934 6.81398 7.06578 6.89391L7.69742 7.08168L6.08781 10.8367C5.54555 12.1034 6.03152 13.5871 7.21789 14.2875L10.8694 16.4433L9.68902 20.2129C9.46215 20.9374 9.86563 21.7087 10.5901 21.9355C10.7271 21.9785 10.8655 21.9991 11.0017 21.9991C11.5865 21.9991 12.1288 21.6223 12.3131 21.0345L13.6727 16.6921C13.9266 15.7996 13.5485 14.841 12.7428 14.355L10.1114 12.8021L11.4568 9.43851L12.3277 11.2187C12.6715 11.9208 13.3985 12.3741 14.1801 12.3741H16.5C17.2593 12.3741 17.875 11.7584 17.875 10.9991C17.875 10.2399 17.2593 9.62457 16.5 9.62457Z" fill="#3B85FF"/>
</g>
<defs>
<clipPath id="clip0_21673_9256">
<rect width="17.875" height="22" fill="white"/>
</clipPath>
</defs>
</svg>
