<svg width="24" height="24" viewBox="0 0 24 24" fill="none" xmlns="http://www.w3.org/2000/svg">
<path d="M2.88 5.27998V21.4752C2.88 22.1808 3.47376 23.04 4.20481 23.04H20.1494C20.8786 23.04 21.6 22.1808 21.6 21.4752V5.27998H2.88ZM12.2208 18.1325C9.408 18.1325 7.12752 15.9273 7.12752 13.2062C7.12752 10.4851 9.408 8.27998 12.2208 8.27998C15.0336 8.27998 17.3141 10.4851 17.3141 13.2062C17.3141 15.9278 15.0336 18.1325 12.2208 18.1325ZM20.1494 0.47998H4.20481C3.47376 0.47998 2.88 0.975821 2.88 1.68238V4.31998H21.6V1.68238C21.6 0.975821 20.8786 0.47998 20.1494 0.47998ZM9.12 3.35998H3.84V1.43998H9.12V3.35998ZM18.3101 3.22558C17.7106 3.22558 17.2262 2.75566 17.2262 2.17534C17.2262 1.59598 17.7106 1.12606 18.3101 1.12606C18.9096 1.12606 19.3954 1.59598 19.3954 2.17534C19.3949 2.75518 18.9096 3.22558 18.3101 3.22558Z" fill="#3B85FF"/>
</svg>
