<svg width="24" height="24" viewBox="0 0 24 24" fill="none" xmlns="http://www.w3.org/2000/svg">
<g clip-path="url(#clip0_21673_9222)">
<path d="M23.52 19.1999C23.0311 19.1998 22.5479 19.0949 22.103 18.8922C21.6443 18.6838 21.1467 18.5752 20.6429 18.5735C20.138 18.5755 19.6393 18.6841 19.1793 18.8922C18.7345 19.0947 18.2514 19.1995 17.7626 19.1995C17.2738 19.1995 16.7907 19.0947 16.3459 18.8922C15.8857 18.6852 15.3874 18.5766 14.8829 18.5735C14.3781 18.5758 13.8794 18.6844 13.4193 18.8922C12.9736 19.0947 12.4898 19.1995 12.0002 19.1995C11.5107 19.1995 11.0268 19.0947 10.5811 18.8922C10.1232 18.6844 9.62662 18.5758 9.12382 18.5735C8.61917 18.5758 8.12067 18.6844 7.66078 18.8922C7.2152 19.0948 6.73139 19.1997 6.2419 19.1997C5.75241 19.1997 5.2686 19.0948 4.82302 18.8922C4.36326 18.684 3.86468 18.5754 3.35998 18.5735C2.85709 18.5763 2.36042 18.6849 1.90222 18.8922C1.45533 19.0945 0.970518 19.1994 0.47998 19.1999V17.0898C0.969771 17.087 1.4538 16.984 1.90222 16.7869C2.35919 16.5754 2.85644 16.4651 3.35998 16.4634C3.88126 16.4634 4.38094 16.5834 4.82302 16.7869C5.26891 16.9839 5.75059 17.087 6.23806 17.0898C6.72809 17.0878 7.21243 16.9847 7.66078 16.7869C8.11943 16.5749 8.61852 16.4645 9.12382 16.4634C9.64126 16.4634 10.1385 16.5834 10.5811 16.7869C11.0289 16.9842 11.5126 17.0873 12.0019 17.0898C12.4902 17.0872 12.9727 16.9841 13.4193 16.7869C13.8782 16.5749 14.3774 16.4645 14.8829 16.4634C15.3979 16.4634 15.8971 16.5834 16.3459 16.7869C16.7755 16.9756 17.2579 17.0898 17.7619 17.0898C18.2502 17.0877 18.7328 16.9845 19.1793 16.7869C19.6381 16.5745 20.1374 16.4642 20.6429 16.4634C21.1641 16.4634 21.6629 16.5834 22.103 16.7869C22.5494 16.9844 23.0318 17.0876 23.52 17.0898V19.1999ZM20.183 13.2306C21.696 13.2306 22.9238 12.0066 22.9238 10.5052C22.9238 9.00228 21.696 7.78452 20.183 7.78452C18.6677 7.78452 17.4413 9.00276 17.4413 10.5052C17.4413 12.0066 18.5587 13.2306 20.183 13.2306ZM4.21966 14.7628C4.4323 14.8132 4.63294 14.8866 4.8235 14.972C5.26856 15.1727 5.75083 15.2775 6.23902 15.2797C6.74302 15.2797 7.23214 15.1655 7.66126 14.972C8.12061 14.7619 8.6192 14.6514 9.1243 14.6476C9.64174 14.6476 10.14 14.7733 10.5816 14.972C11.0284 15.1729 11.5125 15.2777 12.0024 15.2797C12.5016 15.2797 12.9902 15.1655 13.4193 14.972C13.8789 14.762 14.3776 14.6514 14.8829 14.6476C15.3984 14.6476 15.8981 14.7733 16.3459 14.972C16.776 15.165 17.2579 15.2797 17.7629 15.2797C18.1301 15.2797 18.4838 15.2178 18.8174 15.1136L14.2454 6.92676L19.5633 5.9634C20.3438 5.81556 20.9102 5.20692 20.9102 4.42788C20.9102 3.56868 20.2061 2.87988 19.3445 2.87988L19.1669 2.88516L10.9521 4.36932C10.3757 4.50036 9.61198 5.33844 10.0469 6.3666L10.1169 6.5322L12.2606 10.3736L4.21966 14.7628Z" fill="#3B85FF"/>
</g>
<defs>
<clipPath id="clip0_21673_9222">
<rect width="24" height="24" fill="white"/>
</clipPath>
</defs>
</svg>
