<svg width="24" height="24" viewBox="0 0 24 24" fill="none" xmlns="http://www.w3.org/2000/svg">
<path d="M20.975 9.02506L14.925 2.97506L15.35 2.55006C15.7334 2.16673 16.2084 1.97906 16.775 1.98706C17.3417 1.99506 17.8167 2.19106 18.2 2.57506L21.425 5.80006C21.8084 6.1834 22 6.65439 22 7.21306C22 7.77173 21.8084 8.24239 21.425 8.62506L20.975 9.02506ZM8.65002 21.4001C8.26669 21.7834 7.79569 21.9751 7.23702 21.9751C6.67836 21.9751 6.20802 21.7834 5.82602 21.4001L2.60002 18.1751C2.21669 17.7917 2.02502 17.3207 2.02502 16.7621C2.02502 16.2034 2.21669 15.7327 2.60002 15.3501L3.00002 14.9501L9.05002 21.0001L8.65002 21.4001ZM12.275 20.7001C12.075 20.9001 11.8417 21.0001 11.575 21.0001C11.3084 21.0001 11.075 20.9001 10.875 20.7001L3.30002 13.1251C3.10002 12.9251 3.00002 12.6917 3.00002 12.4251C3.00002 12.1584 3.10002 11.9251 3.30002 11.7251L4.72502 10.2751C4.92502 10.0751 5.16269 9.97506 5.43802 9.97506C5.71336 9.97506 5.95069 10.0751 6.15002 10.2751L7.72502 11.8501L11.875 7.70006L10.3 6.12506C10.1 5.92506 10 5.69173 10 5.42506C10 5.1584 10.1 4.92506 10.3 4.72506L11.725 3.27506C11.925 3.07506 12.1627 2.97506 12.438 2.97506C12.7134 2.97506 12.9507 3.07506 13.15 3.27506L20.725 10.8501C20.925 11.0501 21.025 11.2877 21.025 11.5631C21.025 11.8384 20.925 12.0757 20.725 12.2751L19.275 13.7001C19.075 13.9001 18.8417 14.0001 18.575 14.0001C18.3084 14.0001 18.075 13.9001 17.875 13.7001L16.3 12.1251L12.15 16.2751L13.725 17.8501C13.925 18.0501 14.025 18.2874 14.025 18.5621C14.025 18.8367 13.925 19.0744 13.725 19.2751L12.275 20.7001Z" fill="#3B85FF"/>
</svg>
