<svg width="22" height="22" viewBox="0 0 22 22" fill="none" xmlns="http://www.w3.org/2000/svg">
<g clip-path="url(#clip0_21673_9233)">
<path d="M15.3644 9.62243C15.8161 9.62367 16.2635 9.53529 16.6808 9.36241C17.0982 9.18952 17.477 8.93556 17.7955 8.61524L21.1041 5.3088C21.3658 5.04712 21.3899 4.6213 21.1406 4.34673C21.0781 4.27775 21.0021 4.22219 20.9175 4.18344C20.8328 4.14469 20.7411 4.12355 20.648 4.1213C20.5549 4.11905 20.4623 4.13574 20.3759 4.17035C20.2894 4.20497 20.2109 4.25679 20.1451 4.32267L17.1961 7.26946C17.0971 7.36836 16.9629 7.42391 16.8229 7.42391C16.683 7.42391 16.5488 7.36836 16.4497 7.26946C16.2439 7.06407 16.2551 6.71689 16.4605 6.51149L19.3965 3.57544C19.4624 3.50962 19.5141 3.43113 19.5487 3.34471C19.5833 3.25829 19.5999 3.16576 19.5977 3.07271C19.5954 2.97966 19.5743 2.88804 19.5356 2.80339C19.4969 2.71875 19.4414 2.64284 19.3725 2.58028C19.2481 2.46743 19.0858 2.40534 18.9179 2.40626C18.7275 2.40639 18.545 2.48212 18.4104 2.61681L15.4769 5.54985C15.3779 5.64875 15.2437 5.7043 15.1037 5.7043C14.9638 5.7043 14.8296 5.64875 14.7306 5.54985C14.5252 5.34446 14.5359 4.99728 14.7413 4.79188L17.6774 1.85669C17.7432 1.79087 17.7949 1.71238 17.8295 1.62596C17.8641 1.53954 17.8808 1.44701 17.8785 1.35396C17.8762 1.26091 17.8551 1.16928 17.8164 1.08464C17.7777 0.999996 17.7222 0.924094 17.6533 0.861534C17.5289 0.748681 17.3667 0.686586 17.1987 0.68751C17.0083 0.687736 16.8258 0.763454 16.6912 0.898057L13.3848 4.2045C13.0644 4.52306 12.8105 4.902 12.6376 5.31939C12.4647 5.73678 12.3763 6.18433 12.3776 6.6361V6.98974C12.3777 7.08015 12.3599 7.16969 12.3253 7.25323C12.2907 7.33677 12.24 7.41266 12.1761 7.47657L10.646 9.00712C10.63 9.0231 10.611 9.03578 10.5902 9.04443C10.5693 9.05308 10.5469 9.05753 10.5244 9.05753C10.5018 9.05753 10.4794 9.05308 10.4585 9.04443C10.4377 9.03578 10.4187 9.0231 10.4027 9.00712L2.95712 1.56106C2.82862 1.43241 2.65438 1.35991 2.47254 1.35943C2.2907 1.35894 2.11608 1.43052 1.98689 1.55849C1.33591 2.20345 0.988296 3.11396 0.988296 4.19118C0.983999 5.97009 1.919 8.0154 3.42849 9.52275L7.10017 13.1944C7.62203 13.7152 8.32915 14.0077 9.06642 14.0078C9.30146 14.0079 9.53554 13.9779 9.76294 13.9184C9.82004 13.9035 9.8788 13.8958 9.93783 13.8957C10.1104 13.8957 10.2766 13.9609 10.4032 14.0783L10.8926 14.5303C11.0188 14.6593 11.0897 14.8324 11.0902 15.0129V15.2509C11.089 15.7921 11.3017 16.3118 11.6819 16.6968L15.5513 20.6315L15.5551 20.6358C15.9846 21.0652 16.567 21.3064 17.1743 21.3063C17.7817 21.3063 18.3641 21.065 18.7935 20.6355C19.2229 20.2061 19.4641 19.6236 19.464 19.0163C19.464 18.409 19.2227 17.8266 18.7933 17.3972L12.9933 11.5973C12.9774 11.5813 12.9647 11.5624 12.956 11.5415C12.9474 11.5206 12.9429 11.4983 12.9429 11.4757C12.9429 11.4531 12.9474 11.4307 12.956 11.4099C12.9647 11.389 12.9774 11.37 12.9933 11.3541L14.5235 9.82396C14.5873 9.76005 14.6631 9.70937 14.7466 9.67479C14.8301 9.64021 14.9195 9.62242 15.0099 9.62243H15.3644Z" fill="#3B85FF"/>
<path d="M9.06639 15.3829C7.96568 15.3807 6.91024 14.9445 6.12904 14.1691L5.5335 13.5735C5.46906 13.5092 5.38175 13.4731 5.29072 13.4731C5.1997 13.4731 5.11239 13.5092 5.04795 13.5735L1.39561 17.207C0.744631 17.8579 0.51217 18.8161 0.834435 19.7546C0.852472 19.8075 0.873857 19.8591 0.898459 19.9093C1.33201 20.797 2.17334 21.3126 3.09373 21.3126C3.41025 21.3134 3.72379 21.2514 4.01616 21.1301C4.30854 21.0089 4.57395 20.8308 4.79701 20.6062L9.66795 15.7121C9.68845 15.6912 9.70415 15.666 9.71395 15.6384C9.72374 15.6108 9.7274 15.5814 9.72467 15.5522V15.5411C9.72276 15.5143 9.71544 15.4882 9.70316 15.4643C9.69088 15.4404 9.67389 15.4192 9.65321 15.4021C9.63253 15.3849 9.6086 15.3721 9.58285 15.3645C9.5571 15.3569 9.53006 15.3545 9.50338 15.3576C9.35826 15.3737 9.2124 15.3821 9.06639 15.3829Z" fill="#3B85FF"/>
</g>
<defs>
<clipPath id="clip0_21673_9233">
<rect width="22" height="22" fill="white"/>
</clipPath>
</defs>
</svg>
