<svg width="30" height="21" viewBox="0 0 30 21" fill="none" xmlns="http://www.w3.org/2000/svg">
<g clip-path="url(#clip0_21673_9240)">
<path d="M14.7061 2.4029e-05H14.6667C9.2505 2.4029e-05 4.32425 2.10002 0.658 5.52915L0.669375 5.51865L0 6.14252L3.37925 9.49027L4.00925 8.91278C6.81013 6.32977 10.5665 4.74515 14.693 4.74515C18.8195 4.74515 22.5759 6.3289 25.3873 8.9224L25.3768 8.91278L26.0068 9.49027L29.386 6.14252L28.7166 5.51865C24.9306 1.9659 19.9313 -0.00794379 14.7394 2.4029e-05H14.7035H14.7061Z" fill="#3B85FF"/>
<path d="M23.9794 10.5261C21.4484 8.22338 18.148 6.95003 14.7262 6.95608H14.1365L14.1304 6.9692C10.8968 7.09578 7.81142 8.35868 5.41712 10.5357L5.42849 10.5252L4.73987 11.1491L8.14624 14.5222L8.77624 13.971C10.3434 12.5657 12.4259 11.7073 14.7087 11.7073C16.9916 11.7073 19.0741 12.5666 20.65 13.9788L20.6412 13.9718L21.2712 14.5231L24.6776 11.1508L23.9794 10.5261Z" fill="#3B85FF"/>
<path d="M14.7131 21.0002L19.5038 16.2621L18.7425 15.6382C17.5929 14.7327 16.1578 14.2673 14.6956 14.3257H14.707H14.6493C13.2088 14.3233 11.8065 14.7885 10.6531 15.6513L10.6706 15.6391L9.91638 16.2629L10.612 16.9516L14.077 20.3772L14.7131 21.0002Z" fill="#3B85FF"/>
</g>
<defs>
<clipPath id="clip0_21673_9240">
<rect width="29.75" height="21" fill="white"/>
</clipPath>
</defs>
</svg>
