<svg width="24" height="24" viewBox="0 0 24 24" fill="none" xmlns="http://www.w3.org/2000/svg">
<path opacity="0.5" d="M12 5.21606L14 7.21549" stroke="#27272A" stroke-width="1.5" stroke-linecap="round"/>
<path d="M8.96173 18.626L9.42605 18.037L8.96173 18.626ZM12 5.21572L11.4596 5.73582C11.601 5.88272 11.7961 5.96572 12 5.96572C12.2039 5.96572 12.399 5.88272 12.5404 5.73582L12 5.21572ZM15.0383 18.626L15.5026 19.215L15.0383 18.626ZM8.96173 18.626L9.42605 18.037C7.91039 16.8422 6.25307 15.6753 4.93829 14.1949C3.64922 12.7433 2.75 11.0496 2.75 8.85219H2H1.25C1.25 11.5177 2.3605 13.5511 3.81672 15.1909C5.24723 16.8017 7.07077 18.0903 8.49742 19.215L8.96173 18.626ZM2 8.85219H2.75C2.75 6.70132 3.96537 4.89761 5.62436 4.13928C7.23607 3.40256 9.40166 3.59766 11.4596 5.73582L12 5.21572L12.5404 4.69562C10.0985 2.15861 7.26409 1.74047 5.00076 2.77505C2.78471 3.78801 1.25 6.14012 1.25 8.85219H2ZM8.96173 18.626L8.49742 19.215C9.00965 19.6188 9.55954 20.0494 10.1168 20.375C10.6739 20.7005 11.3096 20.9651 12 20.9651V20.2151V19.4651C11.6904 19.4651 11.3261 19.3443 10.8736 19.0799C10.4213 18.8156 9.95208 18.4517 9.42605 18.037L8.96173 18.626ZM15.0383 18.626L15.5026 19.215C16.9292 18.0903 18.7528 16.8017 20.1833 15.1909C21.6395 13.5511 22.75 11.5177 22.75 8.85219H22H21.25C21.25 11.0496 20.3508 12.7433 19.0617 14.1949C17.7469 15.6753 16.0896 16.8422 14.574 18.037L15.0383 18.626ZM22 8.85219H22.75C22.75 6.14012 21.2153 3.78801 18.9992 2.77505C16.7359 1.74047 13.9015 2.15861 11.4596 4.69562L12 5.21572L12.5404 5.73582C14.5983 3.59766 16.7639 3.40256 18.3756 4.13928C20.0346 4.89761 21.25 6.70132 21.25 8.85219H22ZM15.0383 18.626L14.574 18.037C14.0479 18.4517 13.5787 18.8156 13.1264 19.0799C12.6739 19.3443 12.3096 19.4651 12 19.4651V20.2151V20.9651C12.6904 20.9651 13.3261 20.7005 13.8832 20.375C14.4405 20.0494 14.9903 19.6188 15.5026 19.215L15.0383 18.626Z" fill="#27272A"/>
</svg>
