<svg width="24" height="24" viewBox="0 0 24 24" fill="none" xmlns="http://www.w3.org/2000/svg">
<path fill-rule="evenodd" clip-rule="evenodd" d="M2 8.85219C2 13.2573 5.29819 15.7984 8.10627 17.9619C8.39814 18.1868 8.68471 18.4076 8.96173 18.626C10 19.4445 11 20.2151 12 20.2151V5.21572C7.50016 0.540552 2 3.98925 2 8.85219Z" fill="white"/>
<path d="M14 7.21437L12 5.21572V20.2151C13 20.2151 14 19.4445 15.0383 18.626C15.3153 18.4076 15.6019 18.1868 15.8937 17.9619C18.7018 15.7984 22 13.2573 22 8.85219C22 4.38973 17.3685 1.11817 13.1285 4.22221L15.0605 6.15351C15.3534 6.44635 15.3535 6.92123 15.0607 7.21417C14.7678 7.50712 14.2929 7.50721 14 7.21437Z" fill="white"/>
</svg>
