<svg width="22" height="22" viewBox="0 0 22 22" fill="none" xmlns="http://www.w3.org/2000/svg">
<path d="M2.75 6.41667C2.75 4.68818 2.75 3.82394 3.28697 3.28697C3.82394 2.75 4.68818 2.75 6.41667 2.75C8.14515 2.75 9.00939 2.75 9.54636 3.28697C10.0833 3.82394 10.0833 4.68818 10.0833 6.41667C10.0833 8.14515 10.0833 9.00939 9.54636 9.54636C9.00939 10.0833 8.14515 10.0833 6.41667 10.0833C4.68818 10.0833 3.82394 10.0833 3.28697 9.54636C2.75 9.00939 2.75 8.14515 2.75 6.41667Z" stroke="#64646D" stroke-width="1.5"/>
<path d="M12.8335 16.5C12.8335 14.7716 12.8335 13.9073 13.3705 13.3703C13.9074 12.8334 14.7717 12.8334 16.5002 12.8334C18.2286 12.8334 19.0929 12.8334 19.6299 13.3703C20.1668 13.9073 20.1668 14.7716 20.1668 16.5C20.1668 18.2285 20.1668 19.0928 19.6299 19.6297C19.0929 20.1667 18.2286 20.1667 16.5002 20.1667C14.7717 20.1667 13.9074 20.1667 13.3705 19.6297C12.8335 19.0928 12.8335 18.2285 12.8335 16.5Z" stroke="#64646D" stroke-width="1.5"/>
<path d="M2.75 16.5C2.75 14.7716 2.75 13.9073 3.28697 13.3703C3.82394 12.8334 4.68818 12.8334 6.41667 12.8334C8.14515 12.8334 9.00939 12.8334 9.54636 13.3703C10.0833 13.9073 10.0833 14.7716 10.0833 16.5C10.0833 18.2285 10.0833 19.0928 9.54636 19.6297C9.00939 20.1667 8.14515 20.1667 6.41667 20.1667C4.68818 20.1667 3.82394 20.1667 3.28697 19.6297C2.75 19.0928 2.75 18.2285 2.75 16.5Z" stroke="#64646D" stroke-width="1.5"/>
<path d="M12.8335 6.41667C12.8335 4.68818 12.8335 3.82394 13.3705 3.28697C13.9074 2.75 14.7717 2.75 16.5002 2.75C18.2286 2.75 19.0929 2.75 19.6299 3.28697C20.1668 3.82394 20.1668 4.68818 20.1668 6.41667C20.1668 8.14515 20.1668 9.00939 19.6299 9.54636C19.0929 10.0833 18.2286 10.0833 16.5002 10.0833C14.7717 10.0833 13.9074 10.0833 13.3705 9.54636C12.8335 9.00939 12.8335 8.14515 12.8335 6.41667Z" stroke="#64646D" stroke-width="1.5"/>
</svg>
