<svg width="22" height="22" viewBox="0 0 22 22" fill="none" xmlns="http://www.w3.org/2000/svg">
<path d="M2.75 6.41667C2.75 4.68818 2.75 3.82394 3.28697 3.28697C3.82394 2.75 4.68818 2.75 6.41667 2.75C8.14515 2.75 9.00939 2.75 9.54636 3.28697C10.0833 3.82394 10.0833 4.68818 10.0833 6.41667C10.0833 8.14515 10.0833 9.00939 9.54636 9.54636C9.00939 10.0833 8.14515 10.0833 6.41667 10.0833C4.68818 10.0833 3.82394 10.0833 3.28697 9.54636C2.75 9.00939 2.75 8.14515 2.75 6.41667Z" fill="#0A68FF"/>
<path d="M12.8335 16.4999C12.8335 14.7714 12.8335 13.9072 13.3705 13.3702C13.9074 12.8333 14.7717 12.8333 16.5002 12.8333C18.2286 12.8333 19.0929 12.8333 19.6299 13.3702C20.1668 13.9072 20.1668 14.7714 20.1668 16.4999C20.1668 18.2284 20.1668 19.0926 19.6299 19.6296C19.0929 20.1666 18.2286 20.1666 16.5002 20.1666C14.7717 20.1666 13.9074 20.1666 13.3705 19.6296C12.8335 19.0926 12.8335 18.2284 12.8335 16.4999Z" fill="#0A68FF"/>
<path d="M2.75 16.4999C2.75 14.7714 2.75 13.9072 3.28697 13.3702C3.82394 12.8333 4.68818 12.8333 6.41667 12.8333C8.14515 12.8333 9.00939 12.8333 9.54636 13.3702C10.0833 13.9072 10.0833 14.7714 10.0833 16.4999C10.0833 18.2284 10.0833 19.0926 9.54636 19.6296C9.00939 20.1666 8.14515 20.1666 6.41667 20.1666C4.68818 20.1666 3.82394 20.1666 3.28697 19.6296C2.75 19.0926 2.75 18.2284 2.75 16.4999Z" fill="#0A68FF"/>
<path d="M12.8335 6.41667C12.8335 4.68818 12.8335 3.82394 13.3705 3.28697C13.9074 2.75 14.7717 2.75 16.5002 2.75C18.2286 2.75 19.0929 2.75 19.6299 3.28697C20.1668 3.82394 20.1668 4.68818 20.1668 6.41667C20.1668 8.14515 20.1668 9.00939 19.6299 9.54636C19.0929 10.0833 18.2286 10.0833 16.5002 10.0833C14.7717 10.0833 13.9074 10.0833 13.3705 9.54636C12.8335 9.00939 12.8335 8.14515 12.8335 6.41667Z" fill="#0A68FF"/>
</svg>
