<svg width="48" height="48" viewBox="0 0 48 48" fill="none" xmlns="http://www.w3.org/2000/svg">
<path d="M0 10C0 4.47715 4.47715 0 10 0H38C43.5229 0 48 4.47715 48 10V38C48 43.5229 43.5228 48 38 48H10C4.47715 48 0 43.5228 0 38V10Z" fill="#DCFCE7"/>
<path d="M24 34C29.5228 34 34 29.5228 34 24C34 18.4772 29.5228 14 24 14C18.4772 14 14 18.4772 14 24C14 29.5228 18.4772 34 24 34Z" stroke="#00A63E" stroke-width="2" stroke-linecap="round" stroke-linejoin="round"/>
<path d="M21.0901 20.9996C21.3252 20.3313 21.7892 19.7677 22.4 19.4087C23.0108 19.0498 23.729 18.9185 24.4273 19.0383C25.1255 19.1581 25.7589 19.5211 26.2152 20.0631C26.6714 20.6051 26.9211 21.2911 26.9201 21.9996C26.9201 23.9996 23.9201 24.9996 23.9201 24.9996" stroke="#00A63E" stroke-width="2" stroke-linecap="round" stroke-linejoin="round"/>
<path d="M24 29H24.01" stroke="#00A63E" stroke-width="2" stroke-linecap="round" stroke-linejoin="round"/>
</svg>
