<svg width="48" height="48" viewBox="0 0 48 48" fill="none" xmlns="http://www.w3.org/2000/svg">
<path d="M0 10C0 4.47715 4.47715 0 10 0H38C43.5229 0 48 4.47715 48 10V38C48 43.5229 43.5228 48 38 48H10C4.47715 48 0 43.5228 0 38V10Z" fill="#DCFCE7"/>
<path d="M24 20L30 17L24 14V24" stroke="#00A63E" stroke-width="2" stroke-linecap="round" stroke-linejoin="round"/>
<path d="M20.0001 23.9902L14.5001 27.1302C14.3462 27.2175 14.2182 27.3439 14.1291 27.4968C14.0401 27.6496 13.9932 27.8233 13.9932 28.0002C13.9932 28.1771 14.0401 28.3509 14.1291 28.5037C14.2182 28.6565 14.3462 28.783 14.5001 28.8702L23.0001 33.7302C23.3042 33.9058 23.649 33.9982 24.0001 33.9982C24.3512 33.9982 24.6961 33.9058 25.0001 33.7302L33.5001 28.8702C33.654 28.783 33.782 28.6565 33.8711 28.5037C33.9601 28.3509 34.0071 28.1771 34.0071 28.0002C34.0071 27.8233 33.9601 27.6496 33.8711 27.4968C33.782 27.3439 33.654 27.2175 33.5001 27.1302L28.0001 24.0002" stroke="#00A63E" stroke-width="2" stroke-linecap="round" stroke-linejoin="round"/>
<path d="M18.49 24.8496L29.51 31.1496" stroke="#00A63E" stroke-width="2" stroke-linecap="round" stroke-linejoin="round"/>
<path d="M29.51 24.8496L18.5 31.1496" stroke="#00A63E" stroke-width="2" stroke-linecap="round" stroke-linejoin="round"/>
</svg>
