<svg width="48" height="48" viewBox="0 0 48 48" fill="none" xmlns="http://www.w3.org/2000/svg">
<path d="M0 10C0 4.47715 4.47715 0 10 0H38C43.5229 0 48 4.47715 48 10V38C48 43.5229 43.5228 48 38 48H10C4.47715 48 0 43.5228 0 38V10Z" fill="#DBEAFE"/>
<path d="M27 33V25C27 24.7348 26.8946 24.4804 26.7071 24.2929C26.5196 24.1054 26.2652 24 26 24H22C21.7348 24 21.4804 24.1054 21.2929 24.2929C21.1054 24.4804 21 24.7348 21 25V33" stroke="#155DFC" stroke-width="2" stroke-linecap="round" stroke-linejoin="round"/>
<path d="M15 22.0005C14.9999 21.7095 15.0633 21.4221 15.1858 21.1582C15.3082 20.8943 15.4868 20.6603 15.709 20.4725L22.709 14.4735C23.07 14.1684 23.5274 14.001 24 14.001C24.4726 14.001 24.93 14.1684 25.291 14.4735L32.291 20.4725C32.5132 20.6603 32.6918 20.8943 32.8142 21.1582C32.9367 21.4221 33.0001 21.7095 33 22.0005V31.0005C33 31.5309 32.7893 32.0396 32.4142 32.4147C32.0391 32.7897 31.5304 33.0005 31 33.0005H17C16.4696 33.0005 15.9609 32.7897 15.5858 32.4147C15.2107 32.0396 15 31.5309 15 31.0005V22.0005Z" stroke="#155DFC" stroke-width="2" stroke-linecap="round" stroke-linejoin="round"/>
</svg>
