<svg width="24" height="24" viewBox="0 0 24 24" fill="none" xmlns="http://www.w3.org/2000/svg">
<path d="M10.0529 11.2938C9.95899 12.0025 10.0063 12.725 10.1915 13.4121C10.3768 14.0992 10.6957 14.7349 11.1266 15.2761C11.5575 15.8173 12.0904 16.2514 12.689 16.5488C13.2876 16.8463 13.9381 17.0001 14.5961 17L18.4904 17C19.6936 16.9772 20.8404 16.4412 21.6839 15.5073C22.5274 14.5734 23 13.3164 23 12.0071C23 10.6977 22.5274 9.44069 21.6839 8.5068C20.8404 7.57292 19.6936 7.03688 18.4904 7.01412L16.2642 7.00706M13.9471 12.7062C14.041 11.9975 13.9937 11.275 13.8085 10.5879C13.6232 9.90082 13.3043 9.2651 12.8734 8.72388C12.4425 8.18267 11.9096 7.74862 11.311 7.45118C10.7124 7.15374 10.0619 6.99987 9.40385 7L5.50963 7C4.30644 7.02276 3.15961 7.5588 2.31612 8.49268C1.47264 9.42656 1 10.6836 1 11.9929C1 13.3023 1.47264 14.5593 2.31612 15.4932C3.15961 16.4271 4.30644 16.9631 5.50963 16.9859L7.72934 16.9859" stroke="#181D27" stroke-width="2" stroke-linecap="round" stroke-linejoin="round"/>
</svg>
