<svg width="22" height="22" viewBox="0 0 22 22" fill="none" xmlns="http://www.w3.org/2000/svg">
<path d="M2.75 6.41663C2.75 5.12026 2.75 4.47208 3.15273 4.06935C3.55546 3.66663 4.20364 3.66663 5.5 3.66663C6.79636 3.66663 7.44454 3.66663 7.84727 4.06935C8.25 4.47208 8.25 5.12026 8.25 6.41663C8.25 7.71299 8.25 8.36117 7.84727 8.7639C7.44454 9.16663 6.79636 9.16663 5.5 9.16663C4.20364 9.16663 3.55546 9.16663 3.15273 8.7639C2.75 8.36117 2.75 7.71299 2.75 6.41663Z" fill="#0A68FF" stroke="#0A68FF" stroke-width="1.5"/>
<path d="M2.75 16.5C2.75 15.2036 2.75 14.5555 3.15273 14.1527C3.55546 13.75 4.20364 13.75 5.5 13.75C6.79636 13.75 7.44454 13.75 7.84727 14.1527C8.25 14.5555 8.25 15.2036 8.25 16.5C8.25 17.7964 8.25 18.4445 7.84727 18.8473C7.44454 19.25 6.79636 19.25 5.5 19.25C4.20364 19.25 3.55546 19.25 3.15273 18.8473C2.75 18.4445 2.75 17.7964 2.75 16.5Z" fill="#0A68FF" stroke="#0A68FF" stroke-width="1.5"/>
<path d="M11 4.58337H18.3333" stroke="#0A68FF" stroke-width="1.5" stroke-linecap="round"/>
<path d="M11 8.25H15.5833" stroke="#0A68FF" stroke-width="1.5" stroke-linecap="round"/>
<path d="M11 14.6666H18.3333" stroke="#0A68FF" stroke-width="1.5" stroke-linecap="round"/>
<path d="M11 18.3334H15.5833" stroke="#0A68FF" stroke-width="1.5" stroke-linecap="round"/>
</svg>
