<svg width="18" height="18" viewBox="0 0 18 18" fill="none" xmlns="http://www.w3.org/2000/svg">
<path fill-rule="evenodd" clip-rule="evenodd" d="M12.3853 16.1252H6.12447C3.8247 16.1252 2.06039 15.2945 2.56154 11.9513L3.14506 7.42041C3.45399 5.75221 4.51806 5.11377 5.4517 5.11377H13.0856C14.0329 5.11377 15.0352 5.80027 15.3922 7.42041L15.9757 11.9513C16.4014 14.917 14.6851 16.1252 12.3853 16.1252Z" stroke="#0157E0" stroke-width="1.5" stroke-linecap="round" stroke-linejoin="round"/>
<path d="M12.4883 4.9488C12.4883 3.15925 11.0376 1.70853 9.24802 1.70853V1.70853C8.38627 1.70487 7.55856 2.04465 6.94792 2.65271C6.33728 3.26078 5.99401 4.08704 5.99402 4.9488H5.99402" stroke="#0157E0" stroke-width="1.5" stroke-linecap="round" stroke-linejoin="round"/>
<path d="M11.4723 8.32665H11.438" stroke="#0157E0" stroke-width="1.5" stroke-linecap="round" stroke-linejoin="round"/>
<path d="M7.09924 8.32665H7.06492" stroke="#0157E0" stroke-width="1.5" stroke-linecap="round" stroke-linejoin="round"/>
</svg>
