<svg width="167" height="118" viewBox="0 0 167 118" fill="none" xmlns="http://www.w3.org/2000/svg">
<path fill-rule="evenodd" clip-rule="evenodd" d="M160 24.1067C163.866 24.1067 167 27.2407 167 31.1067C167 34.9727 163.866 38.1067 160 38.1067H120C123.866 38.1067 127 41.2407 127 45.1067C127 48.9727 123.866 52.1067 120 52.1067H142C145.866 52.1067 149 55.2407 149 59.1067C149 62.9727 145.866 66.1067 142 66.1067H131.826C126.952 66.1067 123 69.2407 123 73.1067C123 75.684 125 78.0174 129 80.1067C132.866 80.1067 136 83.2407 136 87.1067C136 90.9727 132.866 94.1067 129 94.1067H46C42.134 94.1067 39 90.9727 39 87.1067C39 83.2407 42.134 80.1067 46 80.1067H7C3.13401 80.1067 0 76.9727 0 73.1067C0 69.2407 3.13401 66.1067 7 66.1067H47C50.866 66.1067 54 62.9727 54 59.1067C54 55.2407 50.866 52.1067 47 52.1067H22C18.134 52.1067 15 48.9727 15 45.1067C15 41.2407 18.134 38.1067 22 38.1067H62C58.134 38.1067 55 34.9727 55 31.1067C55 27.2407 58.134 24.1067 62 24.1067H160ZM160 52.1067C163.866 52.1067 167 55.2407 167 59.1067C167 62.9727 163.866 66.1067 160 66.1067C156.134 66.1067 153 62.9727 153 59.1067C153 55.2407 156.134 52.1067 160 52.1067Z" fill="#F3F7FF"/>
<path fill-rule="evenodd" clip-rule="evenodd" d="M25.7707 53.1067H24.8228C18.7592 53.1067 13.8438 48.1984 13.8438 42.1437C13.8438 36.089 18.7592 31.1808 24.8228 31.1808C24.8619 31.1808 24.901 31.181 24.9401 31.1814C25.9161 22.6898 32.8646 16.1067 41.2914 16.1067C50.1731 16.1067 57.4127 23.4199 57.7478 32.5728C63.1182 32.9195 67.8438 38.1463 67.8438 43.5964C67.8438 48.0714 64.5297 53.1067 60.6036 53.1067H33.302" fill="white"/>
<path d="M25.7707 53.1067H24.8228C18.7592 53.1067 13.8438 48.1984 13.8438 42.1437C13.8438 36.089 18.7592 31.1808 24.8228 31.1808C24.8619 31.1808 24.901 31.181 24.9401 31.1814C25.9161 22.6898 32.8646 16.1067 41.2914 16.1067C50.1731 16.1067 57.4127 23.4199 57.7478 32.5728C63.1182 32.9195 67.8438 38.1463 67.8438 43.5964C67.8438 48.0714 64.5297 53.1067 60.6036 53.1067H33.302" stroke="#75A4FE" stroke-width="2.5" stroke-linecap="round"/>
<path d="M83 7.35669C101.618 7.35669 116.75 22.7411 116.75 41.7678C116.75 47.6286 114.289 55.2731 109.169 64.7698C104.064 74.2399 96.3821 85.4302 86.0996 98.3479C85.924 98.5685 85.7265 98.7702 85.5107 98.9485C83.8015 100.361 81.2942 100.099 79.9004 98.3479C69.6179 85.4302 61.9364 74.2399 56.8311 64.7698C51.7115 55.2731 49.2501 47.6286 49.25 41.7678C49.25 22.7411 64.3823 7.35669 83 7.35669Z" fill="white" stroke="#1F64E7" stroke-width="2.5"/>
<path d="M95.2679 13.8176C105.7 18.6653 113 29.5065 113 42.1711C113 47.2935 110.854 54.2949 106.036 63.3586C101.257 72.35 94.0258 83.047 84.2757 95.47C84.2007 95.5656 84.1171 95.652 84.0267 95.7278C83.3291 96.3124 82.3108 96.2162 81.7249 95.47C71.9747 83.0469 64.7426 72.35 59.9632 63.3586C58.8398 61.2453 57.8632 59.2432 57.0237 57.3518C61.2305 55.5038 65.2155 53.2447 68.929 50.6262C71.7166 55.5799 76.974 58.9192 83.0003 58.9192C91.9418 58.919 99.1905 51.5678 99.1907 42.4993C99.1907 35.814 95.2515 30.0611 89.5989 27.4993C91.9579 23.1984 93.8683 18.6171 95.2679 13.8176Z" fill="#E8F0FE"/>
<path d="M65.9212 97.3371C66.6008 97.2155 67.053 96.5659 66.9314 95.8864C66.8097 95.2068 66.1602 94.7546 65.4806 94.8763L65.7009 96.1067L65.9212 97.3371ZM58.5078 96.507C57.8464 96.705 57.4708 97.4016 57.6687 98.063C57.8667 98.7243 58.5633 99.1 59.2246 98.9021L58.8662 97.7046L58.5078 96.507ZM55.2056 100.341C55.8397 100.068 56.1324 99.3325 55.8594 98.6985C55.5864 98.0644 54.851 97.7717 54.217 98.0447L54.7113 99.1928L55.2056 100.341ZM101.047 94.9727C100.369 94.8463 99.716 95.294 99.5896 95.9727C99.4631 96.6513 99.9109 97.304 100.59 97.4304L100.818 96.2015L101.047 94.9727ZM65.7009 96.1067L65.4806 94.8763C62.9568 95.3281 60.6159 95.8761 58.5078 96.507L58.8662 97.7046L59.2246 98.9021C61.229 98.3021 63.4764 97.7748 65.9212 97.3371L65.7009 96.1067ZM54.7113 99.1928L54.217 98.0447C52.0329 98.9851 50.2097 100.07 48.9133 101.298C47.6152 102.528 46.75 103.999 46.75 105.671H48H49.25C49.25 104.922 49.6302 104.062 50.6326 103.113C51.6367 102.161 53.1692 101.218 55.2056 100.341L54.7113 99.1928ZM48 105.671H46.75C46.75 107.77 48.1011 109.542 50.0049 110.956C51.9322 112.388 54.6412 113.625 57.8765 114.642C64.3617 116.68 73.244 117.921 83 117.921V116.671V115.421C73.426 115.421 64.8083 114.2 58.626 112.257C55.5275 111.283 53.111 110.15 51.496 108.95C49.8576 107.732 49.25 106.611 49.25 105.671H48ZM83 116.671V117.921C92.756 117.921 101.638 116.68 108.124 114.642C111.359 113.625 114.068 112.388 115.995 110.956C117.899 109.542 119.25 107.77 119.25 105.671H118H116.75C116.75 106.611 116.142 107.732 114.504 108.95C112.889 110.15 110.472 111.283 107.374 112.257C101.192 114.2 92.574 115.421 83 115.421V116.671ZM118 105.671H119.25C119.25 102.904 116.925 100.698 113.86 99.0435C110.693 97.3342 106.258 95.9431 101.047 94.9727L100.818 96.2015L100.59 97.4304C105.665 98.3757 109.821 99.7045 112.673 101.244C115.627 102.838 116.75 104.409 116.75 105.671H118Z" fill="#1F64E7"/>
<circle cx="83" cy="42.1067" r="15.75" stroke="#1F64E7" stroke-width="2.5"/>
<path fill-rule="evenodd" clip-rule="evenodd" d="M125.789 16.3303C124.875 14.0438 123.063 12.232 120.776 11.3172L119 10.6066L120.776 9.89597C123.063 8.9812 124.875 7.16941 125.789 4.88289L126.5 3.1066L127.211 4.88289C128.125 7.16941 129.937 8.9812 132.224 9.89596L134 10.6066L132.224 11.3172C129.937 12.232 128.125 14.0438 127.211 16.3303L126.5 18.1066L125.789 16.3303Z" stroke="#75A4FE" stroke-width="2.5" stroke-linejoin="round"/>
<path fill-rule="evenodd" clip-rule="evenodd" d="M105.691 87.1067H105C100.582 87.1067 97 83.525 97 79.1067C97 74.6884 100.582 71.1067 105 71.1067C105.029 71.1067 105.057 71.1068 105.085 71.1071C105.797 64.9106 110.86 60.1067 117 60.1067C123.472 60.1067 128.747 65.4434 128.991 72.1225C132.904 72.3755 136.348 76.1896 136.348 80.1667C136.348 83.4323 133.933 87.1067 131.072 87.1067H111.178" fill="white"/>
<path d="M105.691 87.1067H105C100.582 87.1067 97 83.525 97 79.1067C97 74.6884 100.582 71.1067 105 71.1067C105.029 71.1067 105.057 71.1068 105.085 71.1071C105.797 64.9106 110.86 60.1067 117 60.1067C123.472 60.1067 128.747 65.4434 128.991 72.1225C132.904 72.3755 136.348 76.1896 136.348 80.1667C136.348 83.4323 133.933 87.1067 131.072 87.1067H111.178" stroke="#75A4FE" stroke-width="2.5" stroke-linecap="round"/>
</svg>
