<svg width="36" height="36" viewBox="0 0 36 36" fill="none" xmlns="http://www.w3.org/2000/svg">
<path d="M0 10C0 4.47715 4.47715 0 10 0H26C31.5228 0 36 4.47715 36 10V26C36 31.5228 31.5228 36 26 36H10C4.47715 36 0 31.5228 0 26V10Z" fill="#DBEAFE"/>
<g clip-path="url(#clip0_137_8675)">
<path d="M13 26.3337V11.3337C13 10.8916 13.1756 10.4677 13.4882 10.1551C13.8007 9.84259 14.2246 9.66699 14.6667 9.66699H21.3333C21.7754 9.66699 22.1993 9.84259 22.5118 10.1551C22.8244 10.4677 23 10.8916 23 11.3337V26.3337H13Z" stroke="#155DFC" stroke-width="1.66667" stroke-linecap="round" stroke-linejoin="round"/>
<path d="M13 18H11.3334C10.8913 18 10.4674 18.1756 10.1548 18.4882C9.84228 18.8007 9.66669 19.2246 9.66669 19.6667V24.6667C9.66669 25.1087 9.84228 25.5326 10.1548 25.8452C10.4674 26.1577 10.8913 26.3333 11.3334 26.3333H13" stroke="#155DFC" stroke-width="1.66667" stroke-linecap="round" stroke-linejoin="round"/>
<path d="M23 15.5H24.6667C25.1087 15.5 25.5326 15.6756 25.8452 15.9882C26.1577 16.3007 26.3333 16.7246 26.3333 17.1667V24.6667C26.3333 25.1087 26.1577 25.5326 25.8452 25.8452C25.5326 26.1577 25.1087 26.3333 24.6667 26.3333H23" stroke="#155DFC" stroke-width="1.66667" stroke-linecap="round" stroke-linejoin="round"/>
<path d="M16.3333 13H19.6666" stroke="#155DFC" stroke-width="1.66667" stroke-linecap="round" stroke-linejoin="round"/>
<path d="M16.3333 16.333H19.6666" stroke="#155DFC" stroke-width="1.66667" stroke-linecap="round" stroke-linejoin="round"/>
<path d="M16.3333 19.667H19.6666" stroke="#155DFC" stroke-width="1.66667" stroke-linecap="round" stroke-linejoin="round"/>
<path d="M16.3333 23H19.6666" stroke="#155DFC" stroke-width="1.66667" stroke-linecap="round" stroke-linejoin="round"/>
</g>
<defs>
<clipPath id="clip0_137_8675">
<rect width="20" height="20" fill="white" transform="translate(8 8)"/>
</clipPath>
</defs>
</svg>
