<svg width="249" height="156" viewBox="0 0 249 156" fill="none" xmlns="http://www.w3.org/2000/svg">
<path d="M135 48C138.866 48 142 51.134 142 55C142 58.866 138.866 62 135 62H199C202.866 62 206 65.134 206 69C206 72.866 202.866 76 199 76H221C224.866 76 228 79.134 228 83C228 86.866 224.866 90 221 90H202C198.134 90 195 93.134 195 97C195 100.866 198.134 104 202 104H208C211.866 104 215 107.134 215 111C215 114.866 211.866 118 208 118H156C155.485 118 154.983 117.944 154.5 117.839C154.017 117.944 153.515 118 153 118H62C58.134 118 55 114.866 55 111C55 107.134 58.134 104 62 104H23C19.134 104 16 100.866 16 97C16 93.134 19.134 90 23 90H63C66.866 90 70 86.866 70 83C70 79.134 66.866 76 63 76H38C34.134 76 31 72.866 31 69C31 65.134 34.134 62 38 62H78C74.134 62 71 58.866 71 55C71 51.134 74.134 48 78 48H135ZM225 104C228.866 104 232 107.134 232 111C232 114.866 228.866 118 225 118C221.134 118 218 114.866 218 111C218 107.134 221.134 104 225 104Z" fill="#F3F7FF"/>
<path fill-rule="evenodd" clip-rule="evenodd" d="M167.577 110.075C165 112 162.488 113.81 159.644 115.374L159.809 129.457C159.822 130.562 158.937 131.467 157.832 131.48C157.383 131.486 156.945 131.339 156.589 131.066L143.926 121.323C139.18 122.416 134.173 123 129 123C98.6243 123 74 102.853 74 78C74 53.1472 98.6243 33 129 33C159.376 33 184 53.1472 184 78C184 84.8787 182.114 91.397 178.741 97.2274C178.119 98.3027 177.446 99.3546 176.726 100.381C176.726 100.381 175.317 102.5 172.5 105.5C169.683 108.5 167.577 110.075 167.577 110.075Z" fill="white"/>
<path fill-rule="evenodd" clip-rule="evenodd" d="M167.577 110.075C165 112 162.488 113.81 159.644 115.374L159.809 129.457C159.822 130.562 158.937 131.467 157.832 131.48C157.383 131.486 156.945 131.339 156.589 131.066L143.926 121.323C139.18 122.416 134.173 123 129 123C98.6243 123 74 102.853 74 78C74 53.1472 98.6243 33 129 33C159.376 33 184 53.1472 184 78C184 84.8787 182.114 91.397 178.741 97.2274C178.119 98.3027 177.446 99.3546 176.726 100.381C176.726 100.381 175.317 102.5 172.5 105.5C169.683 108.5 167.577 110.075 167.577 110.075Z" stroke="#1F64E7" stroke-width="2.5" stroke-linecap="round"/>
<path fill-rule="evenodd" clip-rule="evenodd" d="M161.853 65.5895C167.157 65.5895 172.266 64.957 177.051 63.7868C178.961 68.1364 180 72.8232 180 77.7074C180 84.0432 178.251 90.0469 175.123 95.4171C174.547 96.4075 173.923 97.3764 173.255 98.3218C172.2 99.8146 171.448 100.869 170.785 101.714C169.219 103.713 168.155 104.544 164.771 107.25C162.515 109.055 160.052 110.691 157.415 112.131L157.568 125.103C157.58 126.12 157.889 127.988 156.865 128C156.449 128.005 154.913 126.837 154.583 126.584L144.373 117.467C139.972 118.473 133.797 119.156 129 119.156C100.833 119.156 78 100.599 78 77.7074C78 58.961 93.3133 43.1215 114.328 38C119.832 53.8745 139.023 65.5895 161.853 65.5895ZM109.291 72.1483C105.986 72.1483 103.307 74.8448 103.307 78.1711C103.307 81.4974 105.986 84.1939 109.291 84.1939C112.596 84.1939 115.275 81.4974 115.275 78.1711C115.275 74.8448 112.596 72.1483 109.291 72.1483ZM128.241 72.1483C124.936 72.1483 122.257 74.8448 122.257 78.1711C122.257 81.4974 124.936 84.1939 128.241 84.1939C131.546 84.1939 134.225 81.4974 134.225 78.1711C134.225 74.8448 131.546 72.1483 128.241 72.1483ZM147.191 72.1483C143.886 72.1483 141.207 74.8448 141.207 78.1711C141.207 81.4974 143.886 84.1939 147.191 84.1939C150.496 84.1939 153.176 81.4974 153.176 78.1711C153.176 74.8448 150.496 72.1483 147.191 72.1483Z" fill="#E8F0FE"/>
<path fill-rule="evenodd" clip-rule="evenodd" d="M109 72C112.314 72 115 74.6863 115 78C115 81.3137 112.314 84 109 84C105.686 84 103 81.3137 103 78C103 74.6863 105.686 72 109 72ZM128 72C131.314 72 134 74.6863 134 78C134 81.3137 131.314 84 128 84C124.686 84 122 81.3137 122 78C122 74.6863 124.686 72 128 72ZM147 72C150.314 72 153 74.6863 153 78C153 81.3137 150.314 84 147 84C143.686 84 141 81.3137 141 78C141 74.6863 143.686 72 147 72Z" fill="white" stroke="#1F64E7" stroke-width="2.5"/>
<path d="M88.6621 63.311C87.7541 64.843 86.9672 66.4328 86.3118 68.072" stroke="#75A4FE" stroke-width="2.5" stroke-linecap="round"/>
<path d="M107.022 47.0732C100.469 50.2006 94.937 54.6244 90.9392 59.9203" stroke="#75A4FE" stroke-width="2.5" stroke-linecap="round"/>
</svg>
