<svg width="62" height="62" viewBox="0 0 62 62" fill="none" xmlns="http://www.w3.org/2000/svg">
<path d="M26.4788 25.8321C26.4788 24.0497 25.034 22.6048 23.2516 22.6048C21.4692 22.6048 20.0242 24.0497 20.0242 25.8321C20.0242 27.6145 21.4692 29.0594 23.2516 29.0594C25.034 29.0594 26.4788 27.6145 26.4788 25.8321ZM41.9788 25.8321C41.9788 24.0497 40.534 22.6048 38.7515 22.6048C36.9692 22.6048 35.5241 24.0497 35.5241 25.8321C35.5241 27.6145 36.9692 29.0594 38.7515 29.0594C40.534 29.0594 41.9788 27.6145 41.9788 25.8321ZM40.688 36.1643C38.4908 36.1643 36.1501 36.7179 34.1221 37.5071C32.1172 38.2873 30.213 39.3783 28.9847 40.6069C28.228 41.3633 28.228 42.5901 28.9847 43.3468C29.7411 44.1034 30.9679 44.1034 31.7246 43.3468C32.4337 42.6376 33.799 41.7911 35.5277 41.1184C37.2338 40.4542 39.0907 40.0393 40.688 40.0393H42.2379C43.308 40.0393 44.1754 39.1718 44.1754 38.1018C44.1754 37.0318 43.308 36.1643 42.2379 36.1643H40.688ZM56.8377 30.999C56.8377 16.7294 45.27 5.16162 31.0004 5.16162C16.7308 5.16162 5.16309 16.7294 5.16309 30.999C5.16309 45.2685 16.7308 56.8362 31.0004 56.8362C45.27 56.8362 56.8377 45.2685 56.8377 30.999ZM9.03809 30.999C9.03809 18.8695 18.8709 9.03662 31.0004 9.03662C43.13 9.03662 52.9627 18.8695 52.9627 30.999C52.9627 43.1285 43.13 52.9612 31.0004 52.9612C18.8709 52.9612 9.03809 43.1285 9.03809 30.999Z" fill="white"/>
</svg>
