<svg width="214" height="197" viewBox="0 0 214 197" fill="none" xmlns="http://www.w3.org/2000/svg">
<g filter="url(#filter0_d_21693_7848)">
<circle cx="123.493" cy="86" r="86" fill="#F2F7FF"/>
<path d="M127.374 45.2891C132.516 48.2577 134.278 54.8322 131.309 59.9739L128.434 64.9535L129.3 65.4535C147.475 75.9469 153.702 99.1874 143.209 117.363L119.709 158.066C116.671 163.327 118.474 170.054 123.735 173.092C124.214 173.368 124.378 173.98 124.101 174.458L117.451 185.976C117.163 186.475 116.976 186.797 116.814 187.031C116.659 187.255 116.576 187.324 116.53 187.354C116.353 187.469 116.144 187.525 115.933 187.514C115.878 187.511 115.772 187.493 115.525 187.376C115.269 187.255 114.945 187.07 114.446 186.781L6.53952 124.481C6.04021 124.193 5.71822 124.006 5.48442 123.844C5.26031 123.689 5.19176 123.606 5.16154 123.56C5.04668 123.383 4.99078 123.174 5.00176 122.963C5.00467 122.908 5.02255 122.802 5.13912 122.555C5.26074 122.299 5.44591 121.975 5.73419 121.476L12.2591 110.175C12.3867 109.954 12.4158 109.906 12.4371 109.876C12.715 109.488 13.2285 109.35 13.6631 109.547C13.6966 109.563 13.7457 109.589 13.9666 109.717L14.8648 110.236C15.0322 110.332 15.127 110.386 15.2091 110.432C20.3953 113.312 26.9305 111.561 29.9819 106.474C30.0303 106.393 30.0852 106.299 30.1819 106.131L51.5754 69.0766C63.1734 48.9883 88.8602 42.1056 108.949 53.7035L109.815 54.2035L112.69 49.2239C115.658 44.0822 122.233 42.3206 127.374 45.2891Z" fill="#DEEBFF" stroke="#0A68FF" stroke-width="2"/>
<mask id="path-3-inside-1_21693_7848" fill="white">
<path d="M67.5859 164.345C65.4642 168.02 64.8892 172.388 65.9875 176.487C67.0858 180.585 69.7674 184.08 73.4423 186.202C77.1173 188.324 81.4846 188.899 85.5834 187.8C89.6823 186.702 93.177 184.02 95.2987 180.345L81.4423 172.345L67.5859 164.345Z"/>
</mask>
<path d="M67.5859 164.345C65.4642 168.02 64.8892 172.388 65.9875 176.487C67.0858 180.585 69.7674 184.08 73.4423 186.202C77.1173 188.324 81.4846 188.899 85.5834 187.8C89.6823 186.702 93.177 184.02 95.2987 180.345L81.4423 172.345L67.5859 164.345Z" fill="#F2F7FF" stroke="#0A68FF" stroke-width="4" mask="url(#path-3-inside-1_21693_7848)"/>
<circle cx="63.9927" cy="23.5" r="6.5" fill="#0A68FF"/>
<circle cx="168.993" cy="104.5" r="5.5" fill="#DEEBFF" stroke="#0A68FF" stroke-width="2"/>
<circle cx="20.9927" cy="88.5" r="5.5" stroke="#0A68FF" stroke-width="2"/>
</g>
<defs>
<filter id="filter0_d_21693_7848" x="0" y="0" width="213.493" height="196.515" filterUnits="userSpaceOnUse" color-interpolation-filters="sRGB">
<feFlood flood-opacity="0" result="BackgroundImageFix"/>
<feColorMatrix in="SourceAlpha" type="matrix" values="0 0 0 0 0 0 0 0 0 0 0 0 0 0 0 0 0 0 127 0" result="hardAlpha"/>
<feOffset dy="4"/>
<feGaussianBlur stdDeviation="2"/>
<feComposite in2="hardAlpha" operator="out"/>
<feColorMatrix type="matrix" values="0 0 0 0 0 0 0 0 0 0 0 0 0 0 0 0 0 0 0.25 0"/>
<feBlend mode="normal" in2="BackgroundImageFix" result="effect1_dropShadow_21693_7848"/>
<feBlend mode="normal" in="SourceGraphic" in2="effect1_dropShadow_21693_7848" result="shape"/>
</filter>
</defs>
</svg>
