<svg width="36" height="36" viewBox="0 0 36 36" fill="none" xmlns="http://www.w3.org/2000/svg">
<path d="M0 10C0 4.47715 4.47715 0 10 0H26C31.5228 0 36 4.47715 36 10V26C36 31.5228 31.5228 36 26 36H10C4.47715 36 0 31.5228 0 26V10Z" fill="#F3F4F6"/>
<path d="M24.6667 18.8331C24.6667 22.9997 21.75 25.0831 18.2833 26.2914C18.1018 26.3529 17.9046 26.35 17.725 26.2831C14.25 25.0831 11.3333 22.9997 11.3333 18.8331V12.9997C11.3333 12.7787 11.4211 12.5667 11.5774 12.4105C11.7337 12.2542 11.9456 12.1664 12.1667 12.1664C13.8333 12.1664 15.9167 11.1664 17.3667 9.89972C17.5432 9.74889 17.7678 9.66602 18 9.66602C18.2322 9.66602 18.4568 9.74889 18.6333 9.89972C20.0917 11.1747 22.1667 12.1664 23.8333 12.1664C24.0543 12.1664 24.2663 12.2542 24.4226 12.4105C24.5789 12.5667 24.6667 12.7787 24.6667 12.9997V18.8331Z" stroke="#4A5565" stroke-width="1.66667" stroke-linecap="round" stroke-linejoin="round"/>
</svg>
