<svg width="36" height="36" viewBox="0 0 36 36" fill="none" xmlns="http://www.w3.org/2000/svg">
<path d="M0 10C0 4.47715 4.47715 0 10 0H26C31.5228 0 36 4.47715 36 10V26C36 31.5228 31.5228 36 26 36H10C4.47715 36 0 31.5228 0 26V10Z" fill="#F3F4F6"/>
<path d="M23.8333 25.5V23.8333C23.8333 22.9493 23.4821 22.1014 22.857 21.4763C22.2319 20.8512 21.3841 20.5 20.5 20.5H15.5C14.6159 20.5 13.7681 20.8512 13.143 21.4763C12.5179 22.1014 12.1667 22.9493 12.1667 23.8333V25.5" stroke="#4A5565" stroke-width="1.66667" stroke-linecap="round" stroke-linejoin="round"/>
<path d="M18 17.1667C19.8409 17.1667 21.3333 15.6743 21.3333 13.8333C21.3333 11.9924 19.8409 10.5 18 10.5C16.159 10.5 14.6667 11.9924 14.6667 13.8333C14.6667 15.6743 16.159 17.1667 18 17.1667Z" stroke="#4A5565" stroke-width="1.66667" stroke-linecap="round" stroke-linejoin="round"/>
</svg>
