<svg width="36" height="36" viewBox="0 0 36 36" fill="none" xmlns="http://www.w3.org/2000/svg">
<path d="M0 10C0 4.47715 4.47715 0 10 0H26C31.5228 0 36 4.47715 36 10V26C36 31.5228 31.5228 36 26 36H10C4.47715 36 0 31.5228 0 26V10Z" fill="#F3F4F6"/>
<path d="M16.5567 25.5C16.7029 25.7533 16.9133 25.9637 17.1667 26.11C17.4201 26.2563 17.7075 26.3333 18 26.3333C18.2925 26.3333 18.5799 26.2563 18.8333 26.11C19.0867 25.9637 19.297 25.7533 19.4433 25.5" stroke="#4A5565" stroke-width="1.66667" stroke-linecap="round" stroke-linejoin="round"/>
<path d="M10.7183 20.771C10.6095 20.8903 10.5376 21.0387 10.5115 21.1981C10.4855 21.3575 10.5063 21.5211 10.5714 21.6688C10.6366 21.8166 10.7433 21.9423 10.8785 22.0306C11.0138 22.1188 11.1718 22.1659 11.3333 22.166H24.6667C24.8282 22.1661 24.9862 22.1192 25.1216 22.0311C25.2569 21.943 25.3637 21.8175 25.4291 21.6698C25.4944 21.5221 25.5154 21.3586 25.4895 21.1992C25.4637 21.0398 25.392 20.8913 25.2833 20.7718C24.175 19.6293 23 18.4152 23 14.666C23 13.3399 22.4732 12.0682 21.5355 11.1305C20.5979 10.1928 19.3261 9.66602 18 9.66602C16.6739 9.66602 15.4021 10.1928 14.4645 11.1305C13.5268 12.0682 13 13.3399 13 14.666C13 18.4152 11.8242 19.6293 10.7183 20.771Z" stroke="#4A5565" stroke-width="1.66667" stroke-linecap="round" stroke-linejoin="round"/>
</svg>
