<svg width="36" height="36" viewBox="0 0 36 36" fill="none" xmlns="http://www.w3.org/2000/svg">
<path d="M0 10C0 4.47715 4.47715 0 10 0H26C31.5228 0 36 4.47715 36 10V26C36 31.5228 31.5228 36 26 36H10C4.47715 36 0 31.5228 0 26V10Z" fill="#FFFCED"/>
<path d="M11.3333 9.66699V26.3337L13 25.5003L14.6667 26.3337L16.3333 25.5003L18 26.3337L19.6667 25.5003L21.3333 26.3337L23 25.5003L24.6667 26.3337V9.66699L23 10.5003L21.3333 9.66699L19.6667 10.5003L18 9.66699L16.3333 10.5003L14.6667 9.66699L13 10.5003L11.3333 9.66699Z" stroke="#E59900" stroke-width="1.66667" stroke-linecap="round" stroke-linejoin="round"/>
<path d="M21.3333 14.667H16.3333C15.8913 14.667 15.4674 14.8426 15.1548 15.1551C14.8423 15.4677 14.6667 15.8916 14.6667 16.3337C14.6667 16.7757 14.8423 17.1996 15.1548 17.5122C15.4674 17.8247 15.8913 18.0003 16.3333 18.0003H19.6667C20.1087 18.0003 20.5326 18.1759 20.8452 18.4885C21.1577 18.801 21.3333 19.225 21.3333 19.667C21.3333 20.109 21.1577 20.5329 20.8452 20.8455C20.5326 21.1581 20.1087 21.3337 19.6667 21.3337H14.6667" stroke="#E59900" stroke-width="1.66667" stroke-linecap="round" stroke-linejoin="round"/>
<path d="M18 22.5837V13.417" stroke="#E59900" stroke-width="1.66667" stroke-linecap="round" stroke-linejoin="round"/>
</svg>
