<svg width="36" height="36" viewBox="0 0 36 36" fill="none" xmlns="http://www.w3.org/2000/svg">
<path d="M0 10C0 4.47715 4.47715 0 10 0H26C31.5228 0 36 4.47715 36 10V26C36 31.5228 31.5228 36 26 36H10C4.47715 36 0 31.5228 0 26V10Z" fill="#F3F4F6"/>
<path d="M24.6667 11.334H11.3333C10.4129 11.334 9.66667 12.0802 9.66667 13.0007V23.0007C9.66667 23.9211 10.4129 24.6673 11.3333 24.6673H24.6667C25.5871 24.6673 26.3333 23.9211 26.3333 23.0007V13.0007C26.3333 12.0802 25.5871 11.334 24.6667 11.334Z" stroke="#4A5565" stroke-width="1.66667" stroke-linecap="round" stroke-linejoin="round"/>
<path d="M26.3333 13.834L18.8583 18.584C18.6011 18.7452 18.3036 18.8307 18 18.8307C17.6964 18.8307 17.3989 18.7452 17.1417 18.584L9.66667 13.834" stroke="#4A5565" stroke-width="1.66667" stroke-linecap="round" stroke-linejoin="round"/>
</svg>
