<svg width="36" height="36" viewBox="0 0 36 36" fill="none" xmlns="http://www.w3.org/2000/svg">
<path d="M0 10C0 4.47715 4.47715 0 10 0H26C31.5228 0 36 4.47715 36 10V26C36 31.5228 31.5228 36 26 36H10C4.47715 36 0 31.5228 0 26V10Z" fill="#F2F7FF"/>
<path d="M20.5 9.66699H13C12.558 9.66699 12.134 9.84259 11.8215 10.1551C11.5089 10.4677 11.3333 10.8916 11.3333 11.3337V24.667C11.3333 25.109 11.5089 25.5329 11.8215 25.8455C12.134 26.1581 12.558 26.3337 13 26.3337H23C23.442 26.3337 23.8659 26.1581 24.1785 25.8455C24.4911 25.5329 24.6667 25.109 24.6667 24.667V13.8337L20.5 9.66699Z" stroke="#0A68FF" stroke-width="1.66667" stroke-linecap="round" stroke-linejoin="round"/>
<path d="M19.6667 9.66699V13.0003C19.6667 13.4424 19.8423 13.8663 20.1548 14.1788C20.4674 14.4914 20.8913 14.667 21.3333 14.667H24.6667" stroke="#0A68FF" stroke-width="1.66667" stroke-linecap="round" stroke-linejoin="round"/>
<path d="M16.3333 15.5H14.6667" stroke="#0A68FF" stroke-width="1.66667" stroke-linecap="round" stroke-linejoin="round"/>
<path d="M21.3333 18.833H14.6667" stroke="#0A68FF" stroke-width="1.66667" stroke-linecap="round" stroke-linejoin="round"/>
<path d="M21.3333 22.167H14.6667" stroke="#0A68FF" stroke-width="1.66667" stroke-linecap="round" stroke-linejoin="round"/>
</svg>
