<svg width="36" height="36" viewBox="0 0 36 36" fill="none" xmlns="http://www.w3.org/2000/svg">
<path d="M0 10C0 4.47715 4.47715 0 10 0H26C31.5228 0 36 4.47715 36 10V26C36 31.5228 31.5228 36 26 36H10C4.47715 36 0 31.5228 0 26V10Z" fill="#EFFFF4"/>
<path d="M24.6667 12.167H11.3333C10.4129 12.167 9.66667 12.9132 9.66667 13.8337V22.167C9.66667 23.0875 10.4129 23.8337 11.3333 23.8337H24.6667C25.5871 23.8337 26.3333 23.0875 26.3333 22.167V13.8337C26.3333 12.9132 25.5871 12.167 24.6667 12.167Z" stroke="#079449" stroke-width="1.66667" stroke-linecap="round" stroke-linejoin="round"/>
<path d="M9.66667 16.333H26.3333" stroke="#079449" stroke-width="1.66667" stroke-linecap="round" stroke-linejoin="round"/>
</svg>
