<svg width="36" height="36" viewBox="0 0 36 36" fill="none" xmlns="http://www.w3.org/2000/svg">
<path d="M0 10C0 4.47715 4.47715 0 10 0H26C31.5228 0 36 4.47715 36 10V26C36 31.5228 31.5228 36 26 36H10C4.47715 36 0 31.5228 0 26V10Z" fill="#F3F4F6"/>
<g clip-path="url(#clip0_23858_52923)">
<path d="M26.3333 22.0994V24.5994C26.3343 24.8315 26.2867 25.0612 26.1938 25.2739C26.1008 25.4865 25.9644 25.6774 25.7934 25.8343C25.6224 25.9912 25.4205 26.1107 25.2006 26.185C24.9808 26.2594 24.7478 26.287 24.5167 26.2661C21.9524 25.9875 19.4892 25.1112 17.325 23.7078C15.3115 22.4283 13.6044 20.7212 12.325 18.7078C10.9166 16.5338 10.0402 14.0586 9.76667 11.4828C9.74584 11.2523 9.77323 11.0201 9.84708 10.8008C9.92094 10.5815 10.0396 10.38 10.1956 10.2091C10.3516 10.0382 10.5415 9.90169 10.7532 9.8082C10.9648 9.71471 11.1936 9.66631 11.425 9.6661H13.925C14.3294 9.66212 14.7215 9.80533 15.0281 10.069C15.3348 10.3328 15.5351 10.699 15.5917 11.0994C15.6972 11.8995 15.8929 12.685 16.175 13.4411C16.2871 13.7394 16.3114 14.0635 16.2449 14.3752C16.1785 14.6868 16.0241 14.9729 15.8 15.1994L14.7417 16.2578C15.928 18.3441 17.6554 20.0715 19.7417 21.2578L20.8 20.1994C21.0266 19.9754 21.3126 19.821 21.6243 19.7545C21.9359 19.688 22.2601 19.7123 22.5583 19.8244C23.3144 20.1066 24.0999 20.3022 24.9 20.4078C25.3048 20.4649 25.6745 20.6688 25.9388 20.9807C26.2031 21.2926 26.3435 21.6907 26.3333 22.0994Z" stroke="#4A5565" stroke-width="1.66667" stroke-linecap="round" stroke-linejoin="round"/>
</g>
<defs>
<clipPath id="clip0_23858_52923">
<rect width="20" height="20" fill="white" transform="translate(8 8)"/>
</clipPath>
</defs>
</svg>
