<svg width="52" height="52" viewBox="0 0 52 52" fill="none" xmlns="http://www.w3.org/2000/svg">
<path d="M26 0.75C39.9452 0.75 51.25 12.0548 51.25 26C51.25 39.9452 39.9452 51.25 26 51.25C12.0548 51.25 0.75 39.9452 0.75 26C0.75 12.0548 12.0548 0.75 26 0.75Z" stroke="#DDDDE3" stroke-width="1.5"/>
<path d="M26 36C31.5228 36 36 31.5228 36 26C36 20.4772 31.5228 16 26 16C20.4772 16 16 20.4772 16 26C16 27.5997 16.3756 29.1116 17.0435 30.4525C17.2209 30.8088 17.28 31.2161 17.1771 31.6006L16.5815 33.8267C16.323 34.793 17.207 35.677 18.1733 35.4185L20.3994 34.8229C20.7839 34.72 21.1912 34.7791 21.5475 34.9565C22.8884 35.6244 24.4003 36 26 36Z" stroke="#27272A" stroke-width="1.5"/>
<path d="M22 24.5H30" stroke="#27272A" stroke-width="1.5" stroke-linecap="round"/>
<path d="M22 28H27.5" stroke="#27272A" stroke-width="1.5" stroke-linecap="round"/>
</svg>
