<svg width="36" height="36" viewBox="0 0 36 36" fill="none" xmlns="http://www.w3.org/2000/svg">
<path d="M0 10C0 4.47715 4.47715 0 10 0H26C31.5228 0 36 4.47715 36 10V26C36 31.5228 31.5228 36 26 36H10C4.47715 36 0 31.5228 0 26V10Z" fill="#F3F4F6"/>
<path d="M9.71835 18.2898C9.6489 18.1027 9.6489 17.8969 9.71835 17.7098C10.3948 16.0697 11.5429 14.6673 13.0173 13.6806C14.4917 12.6938 16.2259 12.167 18 12.167C19.7741 12.167 21.5083 12.6938 22.9827 13.6806C24.4571 14.6673 25.6053 16.0697 26.2817 17.7098C26.3511 17.8969 26.3511 18.1027 26.2817 18.2898C25.6053 19.9299 24.4571 21.3323 22.9827 22.3191C21.5083 23.3058 19.7741 23.8326 18 23.8326C16.2259 23.8326 14.4917 23.3058 13.0173 22.3191C11.5429 21.3323 10.3948 19.9299 9.71835 18.2898Z" stroke="#4A5565" stroke-width="1.66667" stroke-linecap="round" stroke-linejoin="round"/>
<path d="M18 20.5C19.3807 20.5 20.5 19.3807 20.5 18C20.5 16.6193 19.3807 15.5 18 15.5C16.6193 15.5 15.5 16.6193 15.5 18C15.5 19.3807 16.6193 20.5 18 20.5Z" stroke="#4A5565" stroke-width="1.66667" stroke-linecap="round" stroke-linejoin="round"/>
</svg>
