<svg width="36" height="36" viewBox="0 0 36 36" fill="none" xmlns="http://www.w3.org/2000/svg">
<path d="M0 10C0 4.47715 4.47715 0 10 0H26C31.5228 0 36 4.47715 36 10V26C36 31.5228 31.5228 36 26 36H10C4.47715 36 0 31.5228 0 26V10Z" fill="#F3F4F6"/>
<path d="M22.1665 9.66699H13.8332C12.9127 9.66699 12.1665 10.4132 12.1665 11.3337V24.667C12.1665 25.5875 12.9127 26.3337 13.8332 26.3337H22.1665C23.087 26.3337 23.8332 25.5875 23.8332 24.667V11.3337C23.8332 10.4132 23.087 9.66699 22.1665 9.66699Z" stroke="#4A5565" stroke-width="1.66667" stroke-linecap="round" stroke-linejoin="round"/>
<path d="M18 23H18.0083" stroke="#4A5565" stroke-width="1.66667" stroke-linecap="round" stroke-linejoin="round"/>
</svg>
