<svg width="36" height="36" viewBox="0 0 36 36" fill="none" xmlns="http://www.w3.org/2000/svg">
<path d="M0 10C0 4.47715 4.47715 0 10 0H26C31.5228 0 36 4.47715 36 10V26C36 31.5228 31.5228 36 26 36H10C4.47715 36 0 31.5228 0 26V10Z" fill="#F3F4F6"/>
<path d="M23.8333 17.167H12.1667C11.2462 17.167 10.5 17.9132 10.5 18.8337V24.667C10.5 25.5875 11.2462 26.3337 12.1667 26.3337H23.8333C24.7538 26.3337 25.5 25.5875 25.5 24.667V18.8337C25.5 17.9132 24.7538 17.167 23.8333 17.167Z" stroke="#4A5565" stroke-width="1.66667" stroke-linecap="round" stroke-linejoin="round"/>
<path d="M13.8335 17.167V13.8337C13.8335 12.7286 14.2725 11.6688 15.0539 10.8874C15.8353 10.106 16.8951 9.66699 18.0002 9.66699C19.1052 9.66699 20.165 10.106 20.9464 10.8874C21.7278 11.6688 22.1668 12.7286 22.1668 13.8337V17.167" stroke="#4A5565" stroke-width="1.66667" stroke-linecap="round" stroke-linejoin="round"/>
</svg>
