<svg width="140" height="140" viewBox="0 0 140 140" fill="none" xmlns="http://www.w3.org/2000/svg">
<path d="M75.6602 49.7295C77.8992 49.7295 79.7148 51.5442 79.7148 53.7832C79.7148 56.0223 77.8992 57.8379 75.6602 57.8379H112.728C114.966 57.8381 116.781 59.6527 116.781 61.8916C116.781 64.1305 114.966 65.946 112.728 65.9463H125.469C127.708 65.9463 129.522 67.7609 129.522 70C129.522 72.2391 127.708 74.0537 125.469 74.0537H114.465C112.226 74.0537 110.41 75.8693 110.41 78.1084C110.41 80.3474 112.226 82.1621 114.465 82.1621H117.939C120.179 82.1621 121.994 83.9777 121.994 86.2168C121.994 88.4558 120.178 90.2705 117.939 90.2705H87.8232C87.525 90.2705 87.234 90.2388 86.9541 90.1777C86.6743 90.2388 86.3831 90.2705 86.085 90.2705H33.3809C31.142 90.2703 29.3272 88.4557 29.3271 86.2168C29.3271 83.9779 31.142 82.1623 33.3809 82.1621H10.7939C8.55491 82.1621 6.73929 80.3474 6.73926 78.1084C6.73926 75.8693 8.55489 74.0537 10.7939 74.0537H33.96C36.199 74.0537 38.0146 72.2391 38.0146 70C38.0146 67.7609 36.199 65.9463 33.96 65.9463H19.4814C17.2424 65.9463 15.4268 64.1307 15.4268 61.8916C15.4268 59.6526 17.2424 57.8379 19.4814 57.8379H42.6475C40.4086 57.8376 38.5938 56.0221 38.5938 53.7832C38.5938 51.5444 40.4087 49.7297 42.6475 49.7295H75.6602ZM127.785 82.1621C130.024 82.1621 131.84 83.9777 131.84 86.2168C131.84 88.4558 130.024 90.2705 127.785 90.2705C125.546 90.2704 123.732 88.4557 123.731 86.2168C123.731 83.9778 125.546 82.1622 127.785 82.1621Z" fill="#F3F7FF"/>
<path d="M73.6577 64.6423L77.5467 66.71C79.3405 67.6647 81.4373 66.124 81.0945 64.1017L79.8714 56.8815C79.7351 56.0783 79.998 55.2599 80.5753 54.6908L85.759 49.577C87.2101 48.1457 86.4096 45.6503 84.4027 45.3556L77.239 44.3032C76.4417 44.1853 75.7528 43.6785 75.3966 42.9494L72.1932 36.3791C71.2965 34.5403 68.7036 34.5403 67.8067 36.3791L64.6016 42.9494C64.2455 43.6785 63.5584 44.1853 62.7613 44.3032L55.5972 45.3556C53.5903 45.6503 52.79 48.1457 54.2409 49.577L59.4246 54.6908C60.0021 55.2599 60.2652 56.0783 60.1285 56.8815L58.9056 64.1017C58.5626 66.124 60.6595 67.6647 62.4533 66.71L66.8383 64.3779" fill="#DEEBFF"/>
<path d="M76.0102 72.6254L82.4005 75.9832C85.3481 77.5336 88.7934 75.0316 88.2302 71.7476L86.2204 60.0226C85.9965 58.7183 86.4285 57.3894 87.377 56.4652L95.8946 48.1609C98.279 45.8367 96.9638 41.7844 93.6661 41.3058L81.8949 39.5969C80.5849 39.4055 79.4528 38.5824 78.8677 37.3984L73.604 26.7289C72.1304 23.743 67.87 23.743 66.3962 26.7289L61.1298 37.3984C60.5446 38.5824 59.4156 39.4055 58.1058 39.5969L46.3341 41.3058C43.0364 41.7844 41.7215 45.8367 44.1056 48.1609L52.6231 56.4652C53.572 57.3894 54.0043 58.7183 53.7798 60.0226L51.7703 71.7476C51.2067 75.0316 54.6523 77.5336 57.5997 75.9832L64.805 72.1961" stroke="#0A68FF" stroke-width="2.5" stroke-miterlimit="10" stroke-linecap="round" stroke-linejoin="round"/>
<path d="M64.8406 99.6036V109.695" stroke="#0A68FF" stroke-width="2.5" stroke-miterlimit="10" stroke-linecap="round" stroke-linejoin="round"/>
<path d="M76.047 89.3786V98.8154" stroke="#0A68FF" stroke-width="2.5" stroke-miterlimit="10" stroke-linecap="round" stroke-linejoin="round"/>
<path d="M98.4612 96.4109V99.3369" stroke="#0A68FF" stroke-width="2.5" stroke-miterlimit="10" stroke-linecap="round" stroke-linejoin="round"/>
<path d="M87.2539 90.8072V96.991" stroke="#0A68FF" stroke-width="2.5" stroke-miterlimit="10" stroke-linecap="round" stroke-linejoin="round"/>
<path d="M105.251 125.147C101.631 131.061 95.861 135.39 88.254 135.39H71.5633C53.0243 135.39 52.9012 109.72 52.9012 109.72C52.9012 109.676 52.8985 103.02 51.2527 100.054C49.5407 96.9637 50.6536 93.0672 53.7434 91.3528C56.8335 89.6411 60.727 90.754 62.4415 93.8465C64.5114 97.5762 64.8231 99.4821 64.8423 99.5969L64.8395 69.5434C64.8423 67.9958 65.4657 66.5958 66.4829 65.5813C67.4976 64.5669 68.8973 63.9407 70.4423 63.9407C73.5378 63.9407 76.045 66.4481 76.045 69.5407V89.3786C76.045 86.2833 78.5551 83.7758 81.6505 83.7758C83.1954 83.7758 84.5981 84.402 85.6128 85.4165C86.6273 86.4309 87.2535 87.8309 87.2535 89.3786V90.8086C87.2535 89.2583 87.8821 87.8583 88.8965 86.8438C89.911 85.8293 91.3113 85.2032 92.8589 85.2032C94.4036 85.2032 95.8063 85.8321 96.8208 86.8465C97.8352 87.8583 98.4614 89.261 98.4614 90.8059V96.4114C98.4614 93.3161 100.969 90.8059 104.064 90.8086C105.612 90.8059 107.012 91.4348 108.026 92.4493C109.041 93.4637 109.67 94.8637 109.667 96.4114V109.334C109.667 110.554 109.588 111.795 109.432 113.039C109.276 114.275 109.043 115.516 108.737 116.741" stroke="#0A68FF" stroke-width="2.5" stroke-miterlimit="10" stroke-linecap="round" stroke-linejoin="round"/>
<path d="M23.8397 6.20624L27.5924 13.8103C28.0097 14.6557 28.8163 15.2417 29.7495 15.3776L38.1411 16.5969C40.491 16.9384 41.4292 19.8262 39.7287 21.4837L33.6567 27.4026C32.9816 28.0607 32.6734 29.009 32.8328 29.9384L34.2662 38.2958C34.6676 40.6364 32.211 42.4209 30.1094 41.3159L22.6035 37.3702C21.7693 36.9313 20.7718 36.9313 19.9375 37.3702L12.4317 41.3159C10.33 42.4209 7.87345 40.6364 8.27486 38.2958L9.70822 29.9384C9.86763 29.009 9.55947 28.0607 8.88435 27.4026L2.8124 21.4837C1.11189 19.8262 2.05006 16.9384 4.39998 16.5969L12.7915 15.3776C13.7247 15.2417 14.5314 14.6557 14.9487 13.8103L18.7013 6.20624C19.7524 4.07698 22.7886 4.07698 23.8397 6.20624Z" stroke="#0A68FF" stroke-width="2.5" stroke-miterlimit="10" stroke-linecap="round" stroke-linejoin="round"/>
<path d="M131.712 16.0316L135.6 16.5976C137.949 16.9394 138.887 19.8269 137.189 21.484L131.116 27.4012C130.441 28.0601 130.132 29.009 130.293 29.9387L131.726 38.2949C132.128 40.6355 129.669 42.4211 127.567 41.3164L120.063 37.3707C119.227 36.9305 118.231 36.9305 117.395 37.3707L109.892 41.3164C107.789 42.4211 105.333 40.6355 105.733 38.2949L107.168 29.9387C107.327 29.009 107.018 28.0601 106.343 27.4012L100.272 21.484C98.5715 19.8269 99.5091 16.9394 101.858 16.5976L110.25 15.3781C111.182 15.2414 111.989 14.6562 112.407 13.8113L116.159 6.20702C117.212 4.07694 120.247 4.07694 121.3 6.20702L124.157 12.0012" stroke="#0A68FF" stroke-width="2.5" stroke-miterlimit="10" stroke-linecap="round" stroke-linejoin="round"/>
<path d="M109.683 69.2302H98.5214" stroke="#0A68FF" stroke-width="2.5" stroke-miterlimit="10" stroke-linecap="round" stroke-linejoin="round"/>
<path d="M104.141 57.4744L96.9323 62.5918" stroke="#0A68FF" stroke-width="2.5" stroke-miterlimit="10" stroke-linecap="round" stroke-linejoin="round"/>
<path d="M104.141 80.9863L96.9323 75.8687" stroke="#0A68FF" stroke-width="2.5" stroke-miterlimit="10" stroke-linecap="round" stroke-linejoin="round"/>
<path d="M30.3168 69.2302H41.4785" stroke="#0A68FF" stroke-width="2.5" stroke-miterlimit="10" stroke-linecap="round" stroke-linejoin="round"/>
<path d="M35.859 57.4744L43.0676 62.5918" stroke="#0A68FF" stroke-width="2.5" stroke-miterlimit="10" stroke-linecap="round" stroke-linejoin="round"/>
<path d="M35.859 80.9863L43.0676 75.8687" stroke="#0A68FF" stroke-width="2.5" stroke-miterlimit="10" stroke-linecap="round" stroke-linejoin="round"/>
</svg>
