<svg width="32" height="24" viewBox="0 0 32 24" fill="none" xmlns="http://www.w3.org/2000/svg">
<rect width="32" height="23.9925" rx="11.9963" fill="white"/>
<path fill-rule="evenodd" clip-rule="evenodd" d="M0 2.99906C0 2.20366 0.315972 1.44084 0.878405 0.878407C1.44084 0.315974 2.20366 0 2.99906 0H29.0009C29.7963 0 30.5592 0.315974 31.1216 0.878407C31.684 1.44084 32 2.20366 32 2.99906V20.9934C32 21.7888 31.684 22.5517 31.1216 23.1141C30.5592 23.6765 29.7963 23.9925 29.0009 23.9925H2.99906C2.20486 23.9925 1.44308 23.6775 0.880848 23.1165C0.318613 22.5556 0.00183278 21.7946 0 21.0004L0 2.99906ZM2.99906 2.00015C2.73413 2.00015 2.48005 2.10539 2.29272 2.29272C2.10539 2.48005 2.00014 2.73413 2.00014 2.99906V20.9934C2.00014 21.1246 2.02598 21.2545 2.07618 21.3757C2.12638 21.4969 2.19996 21.607 2.29272 21.6998C2.38548 21.7925 2.4956 21.8661 2.61679 21.9163C2.73799 21.9665 2.86788 21.9924 2.99906 21.9924H29.0009C29.2631 21.9899 29.5137 21.8846 29.6989 21.699C29.884 21.5134 29.9888 21.2625 29.9906 21.0004V3.00598C29.9906 2.74105 29.8854 2.48697 29.6981 2.29964C29.5107 2.11231 29.2566 2.00707 28.9917 2.00707L2.99906 2.00015Z" fill="#3B85FF"/>
<path fill-rule="evenodd" clip-rule="evenodd" d="M4.00067 5.00122C4.00037 4.86985 4.02598 4.73971 4.07605 4.61825C4.12611 4.49678 4.19965 4.38639 4.29243 4.29339C4.38522 4.20038 4.49544 4.1266 4.61679 4.07626C4.73813 4.02591 4.86822 4 4.99959 4H10.9977C11.263 4 11.5173 4.10536 11.7049 4.29291C11.8924 4.48046 11.9978 4.73483 11.9978 5.00007C11.9978 5.2653 11.8924 5.51968 11.7049 5.70723C11.5173 5.89478 11.263 6.00015 10.9977 6.00015H6.00082V10.9994C6.00082 11.2646 5.89545 11.519 5.7079 11.7065C5.52035 11.8941 5.26598 11.9994 5.00075 11.9994C4.73551 11.9994 4.48114 11.8941 4.29359 11.7065C4.10604 11.519 4.00067 11.2646 4.00067 10.9994V5.00122ZM27.9932 19.0022C27.9932 19.1336 27.9673 19.2637 27.9169 19.385C27.8666 19.5064 27.7928 19.6166 27.6998 19.7094C27.6068 19.8022 27.4964 19.8757 27.3749 19.9258C27.2535 19.9758 27.1233 20.0015 26.9919 20.0012H20.9938C20.7286 20.0012 20.4742 19.8958 20.2867 19.7082C20.0991 19.5207 19.9938 19.2663 19.9938 19.0011C19.9938 18.7358 20.0991 18.4815 20.2867 18.2939C20.4742 18.1064 20.7286 18.001 20.9938 18.001H25.993V13.0018C25.993 12.7366 26.0984 12.4822 26.2859 12.2946C26.4735 12.1071 26.7279 12.0017 26.9931 12.0017C27.2583 12.0017 27.5127 12.1071 27.7003 12.2946C27.8878 12.4822 27.9932 12.7366 27.9932 13.0018V19.0022Z" fill="#3B85FF"/>
</svg>
