<svg width="20" height="20" viewBox="0 0 20 20" fill="none" xmlns="http://www.w3.org/2000/svg">
<path d="M3 12.8005C3 10.8206 3 9.83071 3.61508 9.21565C4.23015 8.60059 5.2201 8.60059 7.2 8.60059H12.8C14.7799 8.60059 15.7698 8.60059 16.3849 9.21565C17 9.83071 17 10.8206 17 12.8005C17 14.7804 17 15.7703 16.3849 16.3854C15.7698 17.0004 14.7799 17.0004 12.8 17.0004H7.2C5.2201 17.0004 4.23015 17.0004 3.61508 16.3854C3 15.7703 3 14.7804 3 12.8005Z" stroke="#A6A6B0" stroke-width="1.5"/>
<path d="M10 11.3994V14.1994" stroke="#A6A6B0" stroke-width="1.5" stroke-linecap="round"/>
<path d="M5.80005 8.59989V7.19992C5.80005 4.88037 7.68045 3 10 3C12.3196 3 14.2 4.88037 14.2 7.19992V8.59989" stroke="#A6A6B0" stroke-width="1.5" stroke-linecap="round"/>
</svg>
