<svg width="36" height="36" viewBox="0 0 36 36" fill="none" xmlns="http://www.w3.org/2000/svg">
<path d="M10 0.5H26C31.2467 0.5 35.5 4.7533 35.5 10V26C35.5 31.2467 31.2467 35.5 26 35.5H10C4.7533 35.5 0.5 31.2467 0.5 26V10C0.5 4.7533 4.7533 0.5 10 0.5Z" fill="#EFFFF4"/>
<path d="M10 0.5H26C31.2467 0.5 35.5 4.7533 35.5 10V26C35.5 31.2467 31.2467 35.5 26 35.5H10C4.7533 35.5 0.5 31.2467 0.5 26V10C0.5 4.7533 4.7533 0.5 10 0.5Z" stroke="#78DA90"/>
<path d="M13.8333 13.833H22.1666V22.1663" stroke="#079449" stroke-width="1.66667" stroke-linecap="round" stroke-linejoin="round"/>
<path d="M13.8333 22.1663L22.1666 13.833" stroke="#079449" stroke-width="1.66667" stroke-linecap="round" stroke-linejoin="round"/>
</svg>
