<svg width="16" height="16" viewBox="0 0 16 16" fill="none" xmlns="http://www.w3.org/2000/svg">
<path d="M11.3333 9.33333L13.3333 11.5333C13.4247 11.6265 13.4867 11.7445 13.5116 11.8725C13.5366 12.0006 13.5234 12.1332 13.4737 12.2539C13.4241 12.3746 13.34 12.478 13.2321 12.5514C13.1242 12.6247 12.9971 12.6648 12.8666 12.6667H3.13332C3.00283 12.6648 2.87576 12.6247 2.76784 12.5514C2.65992 12.478 2.57591 12.3746 2.52623 12.2539C2.47654 12.1332 2.46336 12.0006 2.48832 11.8725C2.51328 11.7445 2.57529 11.6265 2.66665 11.5333L4.66665 9.33333H4.46665C4.33617 9.3315 4.20909 9.29141 4.10117 9.21804C3.99326 9.14467 3.90925 9.04123 3.85956 8.92057C3.80987 8.7999 3.79669 8.6673 3.82166 8.53921C3.84662 8.41113 3.90862 8.29318 3.99998 8.2L5.99998 6H5.86665C5.73048 6.01228 5.59383 5.9824 5.47521 5.91441C5.3566 5.84642 5.26176 5.7436 5.20354 5.61989C5.14533 5.49619 5.12655 5.35757 5.14977 5.22284C5.17298 5.0881 5.23706 4.96376 5.33332 4.86667L7.99998 2L10.6666 4.86667C10.7629 4.96376 10.827 5.0881 10.8502 5.22284C10.8734 5.35757 10.8546 5.49619 10.7964 5.61989C10.7382 5.7436 10.6434 5.84642 10.5248 5.91441C10.4061 5.9824 10.2695 6.01228 10.1333 6H9.99998L12 8.2C12.0913 8.29318 12.1533 8.41113 12.1783 8.53921C12.2033 8.6673 12.1901 8.7999 12.1404 8.92057C12.0907 9.04123 12.0067 9.14467 11.8988 9.21804C11.7909 9.29141 11.6638 9.3315 11.5333 9.33333H11.3333Z" stroke="#00A63E" stroke-width="1.33333" stroke-linecap="round" stroke-linejoin="round"/>
<path d="M8 14.667V12.667" stroke="#00A63E" stroke-width="1.33333" stroke-linecap="round" stroke-linejoin="round"/>
</svg>
