<svg width="36" height="36" viewBox="0 0 36 36" fill="none" xmlns="http://www.w3.org/2000/svg">
<path d="M0 10C0 4.47715 4.47715 0 10 0H26C31.5228 0 36 4.47715 36 10V26C36 31.5228 31.5228 36 26 36H10C4.47715 36 0 31.5228 0 26V10Z" fill="#FFEDD4"/>
<path d="M23.8333 13.8333V11.3333C23.8333 11.1123 23.7455 10.9004 23.5893 10.7441C23.433 10.5878 23.221 10.5 23 10.5H12.1667C11.7246 10.5 11.3007 10.6756 10.9882 10.9882C10.6756 11.3007 10.5 11.7246 10.5 12.1667C10.5 12.6087 10.6756 13.0326 10.9882 13.3452C11.3007 13.6577 11.7246 13.8333 12.1667 13.8333H24.6667C24.8877 13.8333 25.0996 13.9211 25.2559 14.0774C25.4122 14.2337 25.5 14.4457 25.5 14.6667V18M25.5 18H23C22.558 18 22.134 18.1756 21.8215 18.4882C21.5089 18.8007 21.3333 19.2246 21.3333 19.6667C21.3333 20.1087 21.5089 20.5326 21.8215 20.8452C22.134 21.1577 22.558 21.3333 23 21.3333H25.5C25.721 21.3333 25.933 21.2455 26.0893 21.0893C26.2455 20.933 26.3333 20.721 26.3333 20.5V18.8333C26.3333 18.6123 26.2455 18.4004 26.0893 18.2441C25.933 18.0878 25.721 18 25.5 18Z" stroke="#F54900" stroke-width="1.66667" stroke-linecap="round" stroke-linejoin="round"/>
<path d="M10.5 12.167V23.8337C10.5 24.2757 10.6756 24.6996 10.9882 25.0122C11.3007 25.3247 11.7246 25.5003 12.1667 25.5003H24.6667C24.8877 25.5003 25.0996 25.4125 25.2559 25.2562C25.4122 25.1 25.5 24.888 25.5 24.667V21.3337" stroke="#F54900" stroke-width="1.66667" stroke-linecap="round" stroke-linejoin="round"/>
</svg>
