<svg width="24" height="24" viewBox="0 0 24 24" fill="none" xmlns="http://www.w3.org/2000/svg">
<path d="M2 11.5C2 7.72876 2 5.84315 3.17157 4.67157C4.34315 3.5 6.22876 3.5 10 3.5H14C17.7712 3.5 19.6569 3.5 20.8284 4.67157C22 5.84315 22 7.72876 22 11.5V13.5C22 17.2712 22 19.1569 20.8284 20.3284C19.6569 21.5 17.7712 21.5 14 21.5H10C6.22876 21.5 4.34315 21.5 3.17157 20.3284C2 19.1569 2 17.2712 2 13.5V11.5Z" stroke="#27272A" stroke-width="1.5"/>
<path opacity="0.5" d="M7 3.5V2" stroke="#27272A" stroke-width="1.5" stroke-linecap="round"/>
<path opacity="0.5" d="M17 3.5V2" stroke="#27272A" stroke-width="1.5" stroke-linecap="round"/>
<path opacity="0.5" d="M2.5 8.5H21.5" stroke="#27272A" stroke-width="1.5" stroke-linecap="round"/>
<path d="M18 16.5C18 17.0523 17.5523 17.5 17 17.5C16.4477 17.5 16 17.0523 16 16.5C16 15.9477 16.4477 15.5 17 15.5C17.5523 15.5 18 15.9477 18 16.5Z" fill="#27272A"/>
<path d="M18 12.5C18 13.0523 17.5523 13.5 17 13.5C16.4477 13.5 16 13.0523 16 12.5C16 11.9477 16.4477 11.5 17 11.5C17.5523 11.5 18 11.9477 18 12.5Z" fill="#27272A"/>
<path d="M13 16.5C13 17.0523 12.5523 17.5 12 17.5C11.4477 17.5 11 17.0523 11 16.5C11 15.9477 11.4477 15.5 12 15.5C12.5523 15.5 13 15.9477 13 16.5Z" fill="#27272A"/>
<path d="M13 12.5C13 13.0523 12.5523 13.5 12 13.5C11.4477 13.5 11 13.0523 11 12.5C11 11.9477 11.4477 11.5 12 11.5C12.5523 11.5 13 11.9477 13 12.5Z" fill="#27272A"/>
<path d="M8 16.5C8 17.0523 7.55228 17.5 7 17.5C6.44772 17.5 6 17.0523 6 16.5C6 15.9477 6.44772 15.5 7 15.5C7.55228 15.5 8 15.9477 8 16.5Z" fill="#27272A"/>
<path d="M8 12.5C8 13.0523 7.55228 13.5 7 13.5C6.44772 13.5 6 13.0523 6 12.5C6 11.9477 6.44772 11.5 7 11.5C7.55228 11.5 8 11.9477 8 12.5Z" fill="#27272A"/>
</svg>
