<svg width="24" height="24" viewBox="0 0 24 24" fill="none" xmlns="http://www.w3.org/2000/svg">
<path d="M2.25 11.5C2.25 7.72876 2.25 5.84315 3.42157 4.67157C4.59315 3.5 6.47876 3.5 10.25 3.5H14.25C18.0212 3.5 19.9069 3.5 21.0784 4.67157C22.25 5.84315 22.25 7.72876 22.25 11.5V13.5C22.25 17.2712 22.25 19.1569 21.0784 20.3284C19.9069 21.5 18.0212 21.5 14.25 21.5H10.25C6.47876 21.5 4.59315 21.5 3.42157 20.3284C2.25 19.1569 2.25 17.2712 2.25 13.5V11.5Z" stroke="white" stroke-width="1.5"/>
<path d="M7.25 3.5V2" stroke="white" stroke-width="1.5" stroke-linecap="round"/>
<path d="M17.25 3.5V2" stroke="white" stroke-width="1.5" stroke-linecap="round"/>
<circle cx="16.75" cy="16" r="1.5" stroke="white" stroke-width="1.5"/>
<path d="M2.75 8.5H21.75" stroke="white" stroke-width="1.5" stroke-linecap="round"/>
</svg>
