<svg width="24" height="24" viewBox="0 0 24 24" fill="none" xmlns="http://www.w3.org/2000/svg">
<path d="M6.94126 2C7.35712 2 7.69424 2.32421 7.69424 2.72414V4.18487C8.36214 4.17241 9.1108 4.17241 9.95317 4.17241H13.9691C14.8114 4.17241 15.5601 4.17241 16.228 4.18487V2.72414C16.228 2.32421 16.5651 2 16.981 2C17.3968 2 17.7339 2.32421 17.7339 2.72414V4.24894C19.179 4.36022 20.1276 4.63333 20.8246 5.30359C21.5215 5.97385 21.8055 6.88616 21.9212 8.27586L22.001 9H2.92553H2.00098V8.27586C2.11669 6.88616 2.40067 5.97385 3.09763 5.30359C3.79458 4.63333 4.74324 4.36022 6.18828 4.24894V2.72414C6.18828 2.32421 6.5254 2 6.94126 2Z" fill="#0A68FF"/>
<path opacity="0.5" d="M22.0005 14.0001V12.0001C22.0005 11.161 21.9972 9.66527 21.9843 9H2.01014C1.99724 9.66527 2.0005 11.161 2.0005 12.0001V14.0001C2.0005 17.7713 2.0005 19.6569 3.17208 20.8285C4.34365 22.0001 6.22927 22.0001 10.0005 22.0001H14.0005C17.7717 22.0001 19.6574 22.0001 20.8289 20.8285C22.0005 19.6569 22.0005 17.7713 22.0005 14.0001Z" fill="#0A68FF"/>
<path d="M18.001 17C18.001 17.5523 17.5533 18 17.001 18C16.4487 18 16.001 17.5523 16.001 17C16.001 16.4477 16.4487 16 17.001 16C17.5533 16 18.001 16.4477 18.001 17Z" fill="#0A68FF"/>
<path d="M18.001 13C18.001 13.5523 17.5533 14 17.001 14C16.4487 14 16.001 13.5523 16.001 13C16.001 12.4477 16.4487 12 17.001 12C17.5533 12 18.001 12.4477 18.001 13Z" fill="#0A68FF"/>
<path d="M13.001 17C13.001 17.5523 12.5533 18 12.001 18C11.4487 18 11.001 17.5523 11.001 17C11.001 16.4477 11.4487 16 12.001 16C12.5533 16 13.001 16.4477 13.001 17Z" fill="#0A68FF"/>
<path d="M13.001 13C13.001 13.5523 12.5533 14 12.001 14C11.4487 14 11.001 13.5523 11.001 13C11.001 12.4477 11.4487 12 12.001 12C12.5533 12 13.001 12.4477 13.001 13Z" fill="#0A68FF"/>
<path d="M8.00098 17C8.00098 17.5523 7.55326 18 7.00098 18C6.44869 18 6.00098 17.5523 6.00098 17C6.00098 16.4477 6.44869 16 7.00098 16C7.55326 16 8.00098 16.4477 8.00098 17Z" fill="#0A68FF"/>
<path d="M8.00098 13C8.00098 13.5523 7.55326 14 7.00098 14C6.44869 14 6.00098 13.5523 6.00098 13C6.00098 12.4477 6.44869 12 7.00098 12C7.55326 12 8.00098 12.4477 8.00098 13Z" fill="#0A68FF"/>
</svg>
